<svg width="32" height="32" viewBox="0 0 32 32" fill="none" xmlns="http://www.w3.org/2000/svg">
<path d="M19.9882 25.3706C19.9882 23.6595 20.0044 21.9444 19.9801 20.2333C19.972 19.6981 20.1545 19.5035 20.6897 19.5278C21.4236 19.5603 22.1575 19.5278 22.8914 19.5359C23.1914 19.5359 23.3901 19.4751 23.4266 19.1143C23.5279 18.1857 23.6496 17.2532 23.7915 16.3287C23.8645 15.8665 23.6699 15.7692 23.2603 15.7813C22.3845 15.8016 21.5087 15.7732 20.6329 15.7894C20.1666 15.7975 19.968 15.6232 19.9842 15.1407C20.0085 14.4473 19.9801 13.754 19.9963 13.0606C20.0247 11.8199 20.6086 11.2482 21.8615 11.2158C22.4129 11.1996 22.9643 11.1996 23.5117 11.2158C23.8766 11.2239 24.0267 11.082 24.0186 10.713C24.0023 9.91828 24.0105 9.12356 24.0186 8.32885C24.0186 8.04097 23.9334 7.87067 23.6171 7.83823C22.3359 7.70443 21.0505 7.60712 19.7814 7.8504C17.6284 8.26397 16.2458 9.88989 16.1485 12.0875C16.1039 13.085 16.112 14.0865 16.1282 15.0839C16.1363 15.6151 15.9214 15.8138 15.4024 15.7935C14.6888 15.7692 13.9752 15.7975 13.2615 15.7854C12.8682 15.7773 12.7142 15.9395 12.7223 16.3328C12.7385 17.2086 12.7425 18.0844 12.7223 18.9602C12.7142 19.3778 12.8561 19.5522 13.2859 19.5359C14.0198 19.5116 14.7537 19.5441 15.4875 19.5238C15.9173 19.5116 16.1282 19.6576 16.1282 20.1158C16.1201 23.8258 16.1201 27.5358 16.1282 31.2458C16.1282 31.7486 15.8849 31.8581 15.4429 31.8459C9.77453 31.6513 5.35494 29.1658 2.38287 24.3813C-3.56126 14.8366 2.18825 2.40093 13.2859 0.604713C21.975 -0.802255 30.2668 5.40138 31.3251 14.1027C32.2414 21.6403 27.9719 28.5251 20.8235 31.0309C20.0572 31.2985 19.9923 31.258 19.9882 30.443C19.9882 28.7522 19.9882 27.0573 19.9882 25.3665V25.3706Z" fill="#464965"/>
</svg>
