<svg width="33" height="32" viewBox="0 0 33 32" fill="none" xmlns="http://www.w3.org/2000/svg">
<path d="M16.6329 0.407223C25.2288 0.273419 32.3974 7.50694 32.3853 16.1353C32.3731 24.719 25.2369 31.8471 16.6451 31.843C8.02891 31.839 0.856209 24.6663 0.933247 16.0582C1.01029 7.3853 7.94376 0.411277 16.6329 0.407223ZM25.5694 16.1353C25.5045 14.631 25.618 13.1267 25.4437 11.6184C25.168 9.2545 23.5177 7.52721 21.1498 7.3407C18.1615 7.10147 15.1692 7.10147 12.1809 7.3407C9.80079 7.53127 8.09378 9.20584 7.88699 11.6021C7.6275 14.5864 7.64372 17.5828 7.88294 20.5711C8.07351 22.9876 9.78052 24.6947 12.193 24.8852C15.1813 25.1245 18.1737 25.1245 21.162 24.8852C23.5177 24.6947 25.1761 22.9593 25.4477 20.5954C25.6221 19.1114 25.5045 17.6233 25.5734 16.1393L25.5694 16.1353Z" fill="#464965"/>
<path d="M9.19206 16.1153C9.14746 14.7894 9.21234 13.4676 9.28127 12.1458C9.39074 10.1184 10.6882 8.84121 12.7237 8.73579C15.3511 8.60199 17.9745 8.59793 20.6019 8.73579C22.6373 8.84121 23.9186 10.1306 24.024 12.166C24.1619 14.7935 24.1619 17.4168 24.024 20.0442C23.9186 22.0959 22.6089 23.3853 20.5451 23.4867C17.938 23.6164 15.3349 23.6164 12.7277 23.4867C10.668 23.3812 9.37047 22.0878 9.27315 20.024C9.20828 18.7224 9.14746 17.4209 9.18801 16.1153H9.19206ZM16.6689 20.6241C19.2152 20.62 21.1776 18.6373 21.1695 16.0828C21.1614 13.5649 19.1949 11.6024 16.6729 11.5984C14.1104 11.5943 12.1398 13.5527 12.1398 16.1072C12.1398 18.6576 14.1144 20.6281 16.6689 20.6241ZM21.4615 10.2968C20.9263 10.2968 20.464 10.7834 20.4802 11.3348C20.4924 11.9025 20.8938 12.2917 21.4534 12.2877C22.0089 12.2836 22.4873 11.8092 22.4711 11.2781C22.4549 10.7915 21.944 10.2968 21.4655 10.3009L21.4615 10.2968Z" fill="#464965"/>
<path d="M16.6733 13.0336C18.3519 13.0458 19.7467 14.4568 19.7346 16.1274C19.7224 17.8019 18.3114 19.2008 16.6449 19.1927C14.9784 19.1805 13.5674 17.7573 13.5796 16.099C13.5917 14.4325 15.0149 13.0215 16.6733 13.0336Z" fill="#464965"/>
</svg>
