<svg width="33" height="33" viewBox="0 0 33 33" fill="none" xmlns="http://www.w3.org/2000/svg">
<path fill-rule="evenodd" clip-rule="evenodd" d="M32.7763 16.2024C32.7763 25.1508 25.5222 32.4049 16.5739 32.4049C7.62549 32.4049 0.371429 25.1508 0.371429 16.2024C0.371429 7.25408 7.62549 0 16.5739 0C25.5222 0 32.7763 7.25408 32.7763 16.2024ZM15.7463 25.9862C16.0167 26.065 16.2883 26.1442 16.5788 26.1079L16.5909 26.112C16.595 26.1241 16.595 26.1362 16.595 26.1483V26.1485C16.6963 26.1302 16.7967 26.112 16.897 26.0937C16.9974 26.0755 17.0978 26.0572 17.1991 26.039C17.6979 25.9498 18.1682 25.7714 18.6264 25.5646C19.4048 25.2118 20.1185 24.7496 20.8037 24.2468C21.3105 23.8738 21.789 23.4602 22.2593 23.0385C23.2771 22.1222 24.1812 21.1085 24.9597 19.9813C25.4666 19.2434 25.9207 18.4811 26.2167 17.6337C26.3424 17.2769 26.4438 16.9079 26.4965 16.5349C26.5654 16.0686 26.4803 15.6063 26.3505 15.1563C26.2005 14.6251 25.9896 14.1142 25.7099 13.6358C25.4017 13.1127 25.0854 12.5937 24.7327 12.1031C24.3759 11.6084 23.9907 11.1381 23.5852 10.688C22.8959 9.92171 22.1539 9.21214 21.3511 8.5634C20.8037 8.12144 20.2361 7.71192 19.6319 7.35105C19.1737 7.07939 18.7075 6.83611 18.2128 6.63743C17.7952 6.46713 17.3694 6.34955 16.9315 6.28873C16.4693 6.22386 16.007 6.29278 15.5651 6.43064C15.2123 6.54012 14.8717 6.68609 14.5352 6.83611C13.927 7.10372 13.3675 7.45647 12.8241 7.8295C12.1754 8.27551 11.5631 8.77018 10.9874 9.30134C9.91695 10.2866 8.93977 11.3652 8.12479 12.5775C7.5328 13.4574 7.01786 14.3737 6.77863 15.4198C6.76583 15.474 6.75112 15.5277 6.7364 15.5814C6.69054 15.7487 6.64472 15.9158 6.657 16.097C6.66916 16.3362 6.68133 16.5673 6.73404 16.8065C6.85568 17.3539 7.03813 17.8729 7.28141 18.3757C7.80446 19.4542 8.4978 20.4192 9.27224 21.3234C9.99397 22.1668 10.7846 22.9493 11.6442 23.6589C12.1713 24.0928 12.7187 24.5023 13.2985 24.8713C14.0081 25.3213 14.746 25.7146 15.561 25.9336C15.6229 25.9502 15.6846 25.9682 15.7463 25.9862ZM25.9236 15.8718C25.9345 15.9415 25.9441 16.0029 25.9531 16.0524L25.9613 16.0483C25.945 16.7498 25.7991 17.2647 25.5963 17.7715C25.2963 18.5298 24.8827 19.2191 24.4124 19.88C23.7961 20.7477 23.1068 21.5586 22.3323 22.2844C21.8214 22.7628 21.2903 23.221 20.747 23.667C20.4969 23.8716 20.2309 24.0603 19.9657 24.2484C19.8525 24.3287 19.7395 24.4088 19.6279 24.4901C19.6264 24.4912 19.6248 24.4925 19.6229 24.4939C19.6042 24.5085 19.5663 24.538 19.5184 24.5307C19.4017 24.5151 19.341 24.2942 19.3183 24.2119C19.3174 24.2084 19.3165 24.2052 19.3157 24.2022C19.1505 23.6261 18.3567 23.0859 17.6743 22.6216L17.6613 22.6128C17.6212 22.5855 17.5818 22.5557 17.5419 22.5256C17.4811 22.4797 17.4194 22.4331 17.3532 22.3939C17.3061 22.3654 17.2615 22.3403 17.2205 22.3171C17.0746 22.2349 16.9743 22.1784 16.968 22.0898C16.968 22.0492 16.9842 22.0168 16.9964 21.9965C17.337 21.4572 18.5007 20.549 18.5007 20.549C19.3152 19.9115 19.4252 19.7208 19.5029 19.5861C19.5319 19.5357 19.5565 19.4932 19.6116 19.438C19.7373 19.3083 19.7373 19.2799 19.6035 19.1461L19.5995 19.1421C18.644 18.1906 17.6884 17.239 16.7328 16.2835C16.6112 16.1578 16.6112 16.0929 16.7328 15.9753C17.3085 15.406 17.6904 14.9935 18.0077 14.6507C18.4973 14.1219 18.8332 13.7591 19.49 13.2425C19.5346 13.21 19.6684 13.1046 19.6481 13.0073C19.64 12.9708 19.6157 12.9465 19.567 12.9019C19.4556 12.7968 19.3867 12.7343 19.3602 12.7103C19.353 12.7037 19.349 12.7 19.3481 12.6992C19.2322 12.6129 19.0466 12.405 18.8446 12.1788C18.7426 12.0646 18.6365 11.9457 18.5331 11.8355C18.3344 11.6247 18.0182 11.3327 17.3775 10.7529C17.3068 10.69 17.2714 10.6594 17.2375 10.6302C17.1841 10.584 17.1345 10.5412 16.9558 10.3799C16.8382 10.2704 16.8139 10.2501 16.7612 10.2096C16.7533 10.2038 16.7455 10.1981 16.7377 10.1924C16.6862 10.1549 16.6376 10.1195 16.5706 10.0596C16.5669 10.0561 16.5633 10.0526 16.5598 10.0493C16.494 9.98732 16.4612 9.95634 16.4612 9.92171C16.4612 9.83615 16.6318 9.77106 16.6913 9.74838C16.6966 9.74634 16.7011 9.74464 16.7044 9.7433C17.2032 9.5602 18.0977 8.5021 18.5785 7.93343C18.7152 7.7717 18.8185 7.64956 18.8696 7.59839C18.9386 7.53351 18.9872 7.55378 19.044 7.59028C19.1973 7.68961 19.3521 7.78746 19.507 7.8854C19.8643 8.11127 20.2223 8.33761 20.5645 8.58367C21.4565 9.22836 22.2634 9.97847 23.0094 10.7854C23.8001 11.6409 24.5137 12.5572 25.0935 13.575C25.3895 14.098 25.649 14.6373 25.7991 15.2171C25.8577 15.4515 25.8951 15.6901 25.9236 15.8718Z" fill="#464965"/>
<path d="M17.5065 25.1431C16.728 25.1269 16.0063 24.8795 15.3454 24.5065C12.4504 22.8603 10.1635 20.6181 8.6471 17.6217C8.02268 16.3891 8.07538 15.1889 8.64304 13.9644C8.84982 13.5143 9.02419 13.49 9.31612 13.9117C12.0692 17.8771 15.6576 20.9952 19.469 23.878C19.8988 24.2024 19.8947 24.3646 19.4203 24.5998C18.7392 24.9363 18.0742 25.1471 17.5106 25.1471L17.5065 25.1431ZM17.612 24.5957C17.9769 24.6241 18.4513 24.5065 18.9054 24.3078C19.1771 24.1902 19.2338 24.0159 18.9905 23.805C18.873 23.7037 18.7473 23.6104 18.6216 23.5172C15.2156 20.8451 11.98 17.9988 9.40937 14.4753C9.30395 14.3333 9.20258 14.1428 8.99985 14.1752C8.76468 14.2158 8.74036 14.455 8.6836 14.6415C8.31462 15.8417 8.63898 16.9324 9.25124 17.9623C10.646 20.2978 12.5193 22.1791 14.7899 23.6631C15.5968 24.1862 16.4686 24.5998 17.6039 24.5998L17.612 24.5957Z" fill="#464965"/>
<path d="M19.9516 19.2476C19.9516 19.426 19.8259 19.5273 19.7205 19.6368C18.9663 20.395 18.2081 21.1452 17.4579 21.9074C17.2309 22.1385 17.0363 22.1791 16.7687 21.9561C13.9466 19.5882 11.2746 17.0824 9.16618 14.0333C8.78504 13.4859 8.78503 13.0845 9.20671 12.5574C9.72165 11.9127 10.2204 11.2639 10.7677 10.6476C11.0191 10.3638 11.2219 10.38 11.4854 10.6476C14.2223 13.3926 16.9673 16.1295 19.7083 18.8664C19.8178 18.9759 19.9394 19.0773 19.9597 19.2476H19.9516ZM11.0962 10.7895C10.9421 10.7855 10.861 10.8909 10.7718 10.9923C10.3907 11.4545 10.0136 11.9248 9.6203 12.3749C9.17428 12.8858 9.17833 13.348 9.58379 13.9197C11.5827 16.7377 14.0804 19.0692 16.6795 21.3073C17.0038 21.5831 17.2876 21.502 17.5593 21.2303C18.0783 20.7113 18.5892 20.1801 19.1244 19.6774C19.4975 19.3287 19.5056 19.0408 19.1325 18.6759C16.5902 16.1539 14.0602 13.6156 11.5219 11.0855C11.3962 10.9598 11.2827 10.8179 11.0921 10.7855L11.0962 10.7895Z" fill="#464965"/>
<path d="M19.7204 12.9629C19.7326 13.194 19.6028 13.2954 19.4934 13.4008C18.6784 14.2199 17.8512 15.0308 17.0444 15.862C16.7646 16.1499 16.5456 16.162 16.2659 15.8742C14.644 14.1955 12.9127 12.6183 11.3476 10.8788C11.0394 10.5382 11.0191 10.3031 11.3678 10.003C12.045 9.4232 12.7383 8.87176 13.4681 8.35682C13.7722 8.14192 14.0317 8.21085 14.3277 8.38926C15.3576 9.01773 16.2942 9.7719 17.2065 10.5504C17.9688 11.1991 18.6743 11.9087 19.4001 12.598C19.5258 12.7156 19.6312 12.8616 19.7204 12.9629ZM13.9304 8.44602C13.7723 8.50684 13.6182 8.54333 13.4884 8.61632C12.8113 9.01367 12.2477 9.54889 11.6598 10.0598C11.384 10.299 11.5503 10.4936 11.7327 10.672C13.2411 12.1804 14.7575 13.6887 16.2618 15.2011C16.5497 15.493 16.8132 15.5336 17.1173 15.2254C17.7418 14.5929 18.3702 13.9604 19.0068 13.34C19.2623 13.0886 19.2825 12.8737 19.023 12.6021C17.6161 11.1424 16.1118 9.79217 14.4088 8.67714C14.2629 8.57982 14.0966 8.519 13.9304 8.43791V8.44602Z" fill="#464965"/>
<path d="M16.8456 7.08765C17.539 7.13225 18.2485 7.29038 18.9419 7.54988C19.3271 7.69585 19.3798 7.89453 19.0838 8.19052C18.4796 8.79061 17.8755 9.3907 17.2835 9.9989C17.0118 10.2787 16.7645 10.303 16.4442 10.0557C15.7468 9.52044 15.0372 8.99739 14.3114 8.50272C13.7397 8.11753 13.9262 7.89047 14.425 7.67557C15.1872 7.34715 15.9738 7.14036 16.8496 7.08765H16.8456ZM18.4594 7.97967C18.4553 7.85398 18.4229 7.76478 18.3701 7.69585C18.2607 7.54988 18.0904 7.50528 17.989 7.485C17.024 7.28632 16.3469 7.38769 16.3469 7.38769C15.9252 7.44851 14.4817 7.65935 14.4817 7.97967C14.4817 8.02833 14.5182 8.05671 14.8872 8.32026C15.5522 8.79466 15.5076 8.76628 15.6049 8.83521C16.7483 9.62587 16.0996 9.14336 16.3874 9.35015C16.5821 9.48801 16.6834 9.5691 16.8334 9.5691C17.0483 9.5691 17.2105 9.41502 17.3078 9.31771C17.7903 8.83521 18.2688 8.22701 18.4594 7.97967Z" fill="#464965"/>
</svg>
