<svg width="33" height="33" viewBox="0 0 33 33" fill="none" xmlns="http://www.w3.org/2000/svg">
<path fill-rule="evenodd" clip-rule="evenodd" d="M16.7975 32.4051C25.7459 32.4051 32.9999 25.151 32.9999 16.2027C32.9999 7.25432 25.7459 0.000244141 16.7975 0.000244141C7.84914 0.000244141 0.595062 7.25432 0.595062 16.2027C0.595062 25.151 7.84914 32.4051 16.7975 32.4051ZM24.3797 17.5042V22.5766C24.3797 23.201 24.0472 23.5375 23.4228 23.5375C20.0509 23.5375 16.679 23.5416 13.3071 23.5456L13.3023 23.5456C12.8968 23.5456 12.5725 23.4199 12.4022 23.0266C12.244 22.6658 12.3251 22.3495 12.6738 22.0049L12.6762 22.0025L12.6775 22.0013C16.0903 18.5965 19.5031 15.1918 22.9119 11.7831C23.1835 11.5114 23.4876 11.41 23.8485 11.5438C24.2053 11.6736 24.3715 11.9615 24.3715 12.4034V17.5042H24.3797ZM20.1706 7.29858H17.4013L17.3972 7.29452C17.1246 7.29452 16.8517 7.29715 16.5786 7.29978C15.9539 7.30579 15.3284 7.31181 14.7049 7.28642C14.1859 7.26615 13.8007 7.63511 13.8089 8.17439C13.8228 9.02238 13.8208 9.87038 13.8188 10.7184C13.8173 11.3544 13.8158 11.9904 13.821 12.6264C13.8251 12.8778 13.748 12.9427 13.5007 12.9427C12.3199 12.9329 11.1391 12.9336 9.95834 12.9342C9.66323 12.9344 9.36812 12.9346 9.07301 12.9346C8.41616 12.9346 8.13233 13.2184 8.13233 13.8793V19.1625C8.13233 19.1855 8.13188 19.2085 8.13143 19.2315C8.13053 19.2774 8.12963 19.3234 8.13233 19.3693C8.16477 19.791 8.48103 20.1113 8.87839 20.1235C9.30413 20.1397 9.62445 19.864 9.68121 19.418C9.69743 19.2923 9.69743 19.1625 9.69743 19.0328C9.69743 18.7514 9.69759 18.47 9.69775 18.1887C9.6984 17.0631 9.69905 15.9375 9.68932 14.8119C9.68932 14.5564 9.75014 14.4713 10.0218 14.4713C11.0586 14.48 12.0933 14.4783 13.1289 14.4767C13.5432 14.476 13.9577 14.4753 14.3725 14.4753C15.0536 14.4753 15.3415 14.1915 15.3415 13.5022C15.3415 12.0466 15.3415 10.5869 15.3334 9.12723C15.3334 8.89206 15.3942 8.81908 15.6375 8.81908C17.1484 8.82718 18.6553 8.82314 20.1662 8.81909L20.1706 8.81908C20.645 8.81503 21.0059 8.46632 20.9978 8.03653C20.9897 7.61484 20.641 7.29858 20.1706 7.29858Z" fill="#464965"/>
</svg>
