<svg width="33" height="32" viewBox="0 0 33 32" fill="none" xmlns="http://www.w3.org/2000/svg">
<path d="M16.6308 0.407222C25.2267 0.273418 32.3751 7.51099 32.3589 16.119C32.3426 24.6906 25.2267 31.8065 16.6389 31.8025C8.05115 31.7984 0.91088 24.6501 0.939263 16.0339C0.967645 7.49072 8.07548 0.297746 16.6308 0.407222ZM13.8858 22.4889C13.9223 22.6592 13.7561 22.9552 14.0115 23.0566C14.2386 23.1458 14.4048 22.8944 14.5629 22.7444C15.0252 22.3146 15.5117 21.9051 15.9294 21.4347C16.3227 20.9887 16.6187 21.0536 17.0485 21.3901C18.0905 22.2051 19.1609 22.9836 20.2435 23.7499C20.9652 24.2649 21.464 24.0743 21.691 23.2188C21.8411 22.6471 21.9465 22.0672 22.0681 21.4915C22.798 18.0491 23.5318 14.6067 24.2495 11.1602C24.4523 10.1992 23.9779 9.79377 23.0493 10.0979C22.8953 10.1465 22.7452 10.2114 22.5912 10.2722C19.3069 11.5373 16.0186 12.8023 12.7343 14.0714C11.1976 14.6634 9.65679 15.2595 8.12413 15.8677C7.84436 15.9771 7.51188 16.1028 7.53215 16.4799C7.55242 16.8367 7.89301 16.8894 8.15656 16.9705C9.16617 17.2908 10.1839 17.5787 11.1813 17.9274C11.6517 18.0896 12.0085 18.0328 12.4302 17.7652C15.1063 16.0542 17.7986 14.3715 20.4909 12.6847C20.7382 12.5307 21.0828 12.2104 21.2977 12.482C21.5491 12.7942 21.0909 12.9807 20.8923 13.1632C18.8041 15.0729 16.6997 16.9624 14.5994 18.8641C14.3602 19.079 14.121 19.2817 14.1007 19.6628C14.048 20.5954 13.9588 21.528 13.8817 22.497L13.8858 22.4889Z" fill="#464965"/>
</svg>
