<svg width="33" height="32" viewBox="0 0 33 32" fill="none" xmlns="http://www.w3.org/2000/svg">
<path d="M16.6093 0.407125C25.1282 0.277376 32.3049 7.46629 32.2806 16.0865C32.2603 24.6865 25.0836 31.7335 16.5931 31.7172C7.9891 31.697 0.909648 24.5162 0.94614 15.9811C0.982632 7.5109 8.03369 0.305758 16.6053 0.407125H16.6093ZM11.3747 17.4773C11.0179 17.7368 10.7057 17.6759 10.4219 17.6719C10.0205 17.6638 9.96372 17.7976 10.1502 18.1382C10.649 19.0464 11.4153 19.5938 12.3965 19.8857C12.6317 19.9547 13.029 19.8127 13.0615 20.129C13.0858 20.3723 12.7087 20.4777 12.4938 20.6196C12.3762 20.6967 12.2465 20.7575 12.1208 20.8264C10.9733 21.4346 9.73665 21.686 8.43511 21.7022C8.49998 21.8968 8.65811 21.9212 8.7757 21.982C11.2531 23.2227 13.8278 23.4214 16.4674 22.6348C20.5261 21.4224 23.4617 17.4732 23.5144 13.1631C23.5225 12.6482 23.6441 12.2751 24.078 11.9791C24.4591 11.7156 24.7592 11.3547 25.043 10.9087C24.4754 10.9493 24.0091 11.2858 23.4009 11.1439C23.8509 10.6289 24.4186 10.2681 24.597 9.53012C24.0537 9.71258 23.5752 9.8626 23.1049 10.0288C22.7846 10.1424 22.5372 10.0816 22.2656 9.8626C21.0776 8.90165 19.7598 8.71919 18.3974 9.40848C17.0796 10.0734 16.4633 11.2006 16.4998 12.6887C16.5201 13.3902 16.4228 13.4631 15.7375 13.3658C13.2601 13.009 11.1355 11.9548 9.44067 10.0937C9.13657 9.76124 8.99871 9.82611 8.88518 10.2113C8.4716 11.6102 8.71488 12.8549 9.72854 13.9335C9.85018 14.0632 10.1056 14.1241 10.0326 14.3957C9.55014 14.4849 9.13657 14.2011 8.64596 14.1281C8.79598 15.8594 9.76098 16.8853 11.3747 17.4813V17.4773Z" fill="#464965"/>
</svg>
