<svg width="42" height="42" viewBox="0 0 42 42" fill="none" xmlns="http://www.w3.org/2000/svg">
<path d="M39.3732 20.4107C39.3732 30.876 30.8894 39.3598 20.4241 39.3598C17.1122 39.3598 13.9986 38.5101 11.2897 37.0169C9.99058 36.3007 4.50883 39.2803 3.41853 38.2909C2.56689 37.5181 6.06157 32.8251 5.36203 31.9102C2.92362 28.7213 1.47504 24.7352 1.47504 20.4107C1.47504 9.94546 9.95883 1.46167 20.4241 1.46167C30.8894 1.46167 39.3732 9.94546 39.3732 20.4107Z" fill="url(#paint0_linear_143_462)"/>
<path fill-rule="evenodd" clip-rule="evenodd" d="M35.6618 6.09006C31.7382 2.16646 26.5167 0 20.9558 0C9.4945 0 0.179706 9.32478 0.169723 20.7761C0.169723 24.4401 1.12816 28.0143 2.94519 31.1591L0 41.9316L11.022 39.0463C14.0571 40.7036 17.4715 41.5722 20.9558 41.5722H20.9658C32.4171 41.5722 41.7419 32.2474 41.7519 20.7961C41.7519 15.2351 39.5854 10.0137 35.6618 6.09006ZM20.9658 38.0579C17.8609 38.0579 14.8158 37.2193 12.1701 35.6518L11.5412 35.2824L5.00184 36.9996L6.74899 30.63L6.33965 29.9811C4.61247 27.2355 3.69397 24.0507 3.69397 20.7861C3.69397 11.2616 11.4513 3.51426 20.9758 3.51426C25.5882 3.51426 29.9312 5.31133 33.1858 8.576C36.4505 11.8407 38.2476 16.1836 38.2376 20.7961C38.2276 30.3105 30.4803 38.0579 20.9658 38.0579ZM30.4403 25.129C29.9212 24.8694 27.3653 23.6115 26.8961 23.4417C26.4169 23.272 26.0774 23.1822 25.728 23.7013C25.3786 24.2205 24.3902 25.3886 24.0807 25.738C23.7812 26.0874 23.4717 26.1274 22.9525 25.8678C22.4334 25.6082 20.7561 25.0591 18.7794 23.292C17.2319 21.9142 16.1936 20.217 15.8941 19.6979C15.5946 19.1787 15.8641 18.8992 16.1237 18.6396C16.3533 18.41 16.6428 18.0306 16.9024 17.7311C17.162 17.4315 17.2518 17.2119 17.4216 16.8625C17.5913 16.513 17.5114 16.2135 17.3816 15.954C17.2518 15.6944 16.2135 13.1386 15.7842 12.1003C15.3649 11.0919 14.9356 11.2217 14.6161 11.2117C14.3166 11.1917 13.9672 11.1917 13.6178 11.1917C13.2683 11.1917 12.7093 11.3215 12.23 11.8407C11.7508 12.3598 10.413 13.6178 10.413 16.1736C10.413 18.7294 12.27 21.1954 12.5296 21.5448C12.7891 21.8943 16.1936 27.1357 21.4051 29.382C22.643 29.9212 23.6115 30.2406 24.3702 30.4803C25.6182 30.8796 26.7463 30.8197 27.6449 30.6899C28.6433 30.5402 30.7199 29.432 31.1492 28.2239C31.5785 27.0159 31.5785 25.9676 31.4487 25.758C31.2989 25.5184 30.9595 25.3886 30.4403 25.129Z" fill="white"/>
<defs>
<linearGradient id="paint0_linear_143_462" x1="20.4256" y1="39.3627" x2="20.4256" y2="1.46167" gradientUnits="userSpaceOnUse">
<stop stop-color="#25CF43"/>
<stop offset="1" stop-color="#61FD7D"/>
</linearGradient>
</defs>
</svg>
