<svg width="27" height="22" viewBox="0 0 27 22" fill="none" xmlns="http://www.w3.org/2000/svg">
<g clip-path="url(#clip0_143_263)">
<path d="M4.00021 11C4.00021 4.92486 8.92507 0 15.0002 0C21.0753 0 26.0002 4.92486 26.0002 11C26.0002 17.0751 21.0753 22 15.0002 22C13.1396 22 11.3844 21.5372 9.84593 20.7201L5.5025 21.9552C5.30063 22.0124 5.08715 22.0147 4.8841 21.9619C4.68106 21.909 4.4958 21.8029 4.34748 21.6545C4.19915 21.5061 4.09314 21.3208 4.04038 21.1177C3.98762 20.9146 3.99003 20.7011 4.04736 20.4993L5.2825 16.1566C4.43837 14.569 3.99799 12.7981 4.00021 11ZM10.2859 8.64286C10.2859 8.85124 10.3687 9.05109 10.5161 9.19844C10.6634 9.34579 10.8633 9.42857 11.0716 9.42857H18.9288C19.1372 9.42857 19.337 9.34579 19.4844 9.19844C19.6317 9.05109 19.7145 8.85124 19.7145 8.64286C19.7145 8.43447 19.6317 8.23462 19.4844 8.08727C19.337 7.93992 19.1372 7.85714 18.9288 7.85714H11.0716C10.8633 7.85714 10.6634 7.93992 10.5161 8.08727C10.3687 8.23462 10.2859 8.43447 10.2859 8.64286ZM11.0716 12.5714C10.8633 12.5714 10.6634 12.6542 10.5161 12.8016C10.3687 12.9489 10.2859 13.1488 10.2859 13.3571C10.2859 13.5655 10.3687 13.7654 10.5161 13.9127C10.6634 14.0601 10.8633 14.1429 11.0716 14.1429H15.7859C15.9943 14.1429 16.1942 14.0601 16.3415 13.9127C16.4889 13.7654 16.5716 13.5655 16.5716 13.3571C16.5716 13.1488 16.4889 12.9489 16.3415 12.8016C16.1942 12.6542 15.9943 12.5714 15.7859 12.5714H11.0716Z" fill="currentColor"/>
</g>
<defs>
<clipPath id="clip0_143_263">
<rect width="27" height="22" fill="currentColor"/>
</clipPath>
</defs>
</svg>
