<svg width="24" height="24" viewBox="0 0 24 24" fill="none" xmlns="http://www.w3.org/2000/svg">
<path fill-rule="evenodd" clip-rule="evenodd" d="M0.949041 6.93613C0.344376 8.03732 0.344376 9.36875 0.344376 12.0293V13.7991C0.344376 18.3341 0.344375 20.6027 1.7072 22.0121C3.06886 23.4214 5.26194 23.4214 9.64692 23.4214H14.2982C18.6832 23.4214 20.8763 23.4214 22.2379 22.0121C23.6007 20.6027 23.6007 18.3352 23.6007 13.7991V12.0304C23.6007 9.36875 23.6007 8.03848 22.9961 6.93613C22.3937 5.83262 21.2902 5.14888 19.0844 3.77908L16.7587 2.33602C14.4273 0.888312 13.261 0.165039 11.9726 0.165039C10.6842 0.165039 9.51901 0.888312 7.1864 2.33602L4.86076 3.77908C2.6549 5.14888 1.55254 5.83262 0.949041 6.93613ZM11.1004 18.7701C11.1004 19.0014 11.1923 19.2233 11.3559 19.3868C11.5194 19.5504 11.7413 19.6423 11.9726 19.6423C12.2039 19.6423 12.4257 19.5504 12.5892 19.3868C12.7528 19.2233 12.8447 19.0014 12.8447 18.7701V15.2817C12.8447 15.0504 12.7528 14.8286 12.5892 14.665C12.4257 14.5015 12.2039 14.4096 11.9726 14.4096C11.7413 14.4096 11.5194 14.5015 11.3559 14.665C11.1923 14.8286 11.1004 15.0504 11.1004 15.2817V18.7701Z" fill="url(#paint0_linear_143_238)"/>
<defs>
<linearGradient id="paint0_linear_143_238" x1="3.75141" y1="23.4917" x2="18.6358" y2="0.766617" gradientUnits="userSpaceOnUse">
<stop stop-color="#3790FB"/>
<stop offset="1" stop-color="#D141F6"/>
</linearGradient>
</defs>
</svg>
