<svg width="19" height="24" viewBox="0 0 19 24" fill="none" xmlns="http://www.w3.org/2000/svg">
<path d="M13.7705 4.04977H6.01838V2.30384C6.01838 1.80333 6.33865 1.35897 6.81348 1.20069L9.15901 0.41885C9.63639 0.259724 10.1525 0.259724 10.6299 0.41885L12.9754 1.20069C13.4502 1.35897 13.7705 1.80333 13.7705 2.30384V4.04977Z" fill="currentColor"/>
<path fill-rule="evenodd" clip-rule="evenodd" d="M9.89443 23.4298C14.8894 23.4298 18.9386 19.3806 18.9386 14.3857C18.9386 9.39075 14.8894 5.34155 9.89443 5.34155C4.89949 5.34155 0.850288 9.39075 0.850288 14.3857C0.850288 19.3806 4.89949 23.4298 9.89443 23.4298ZM9.24844 13.422V6.6599C9.46144 6.64232 9.6769 6.63336 9.89444 6.63336C14.1758 6.63336 17.6466 10.1041 17.6466 14.3855C17.6466 16.6905 16.6406 18.7605 15.0437 20.1805L9.9296 15.0664C9.49346 14.6303 9.24844 14.0387 9.24844 13.422Z" fill="currentColor"/>
</svg>
