<svg width="17" height="17" viewBox="0 0 17 17" fill="none" xmlns="http://www.w3.org/2000/svg">
<path d="M1.77868 0C0.922459 0 0.228256 0.694203 0.228256 1.55043V5.42649C0.228256 6.28271 0.922459 6.97691 1.77868 6.97691H5.65474C6.51097 6.97691 7.20517 6.28271 7.20517 5.42649V1.55043C7.20517 0.694203 6.51097 0 5.65474 0H1.77868Z" fill="currentColor"/>
<path d="M1.77868 9.30237C0.922459 9.30237 0.228256 9.99657 0.228256 10.8528V14.7289C0.228256 15.5851 0.922459 16.2793 1.77868 16.2793H5.65474C6.51097 16.2793 7.20517 15.5851 7.20517 14.7289V10.8528C7.20517 9.99657 6.51097 9.30237 5.65474 9.30237H1.77868Z" fill="currentColor"/>
<path d="M11.0812 0C10.225 0 9.53081 0.694203 9.53081 1.55043V5.42649C9.53081 6.28271 10.225 6.97691 11.0812 6.97691H14.9573C15.8135 6.97691 16.5077 6.28271 16.5077 5.42649V1.55043C16.5077 0.694203 15.8135 0 14.9573 0H11.0812Z" fill="currentColor"/>
<path d="M11.0812 9.30237C10.225 9.30237 9.53081 9.99657 9.53081 10.8528V14.7289C9.53081 15.5851 10.225 16.2793 11.0812 16.2793H14.9573C15.8135 16.2793 16.5077 15.5851 16.5077 14.7289V10.8528C16.5077 9.99657 15.8135 9.30237 14.9573 9.30237H11.0812Z" fill="currentColor"/>
</svg>
