<svg width="14" height="14" viewBox="0 0 14 14" fill="none" xmlns="http://www.w3.org/2000/svg">
<path d="M11.9498 2.05026C10.6276 0.728137 8.86977 0 7 0C5.13023 0 3.37239 0.728137 2.05023 2.05026C0.728109 3.37239 0 5.13023 0 7C0 8.86979 0.728109 10.6276 2.05023 11.9498C3.37236 13.2719 5.13023 14 7 14C8.86977 14 10.6276 13.2719 11.9498 11.9498C13.2719 10.6276 14 8.86979 14 7C14 5.13023 13.2719 3.37239 11.9498 2.05026ZM7.41016 2.37642L9.06363 1.17507C10.3003 1.61451 11.3567 2.43707 12.0897 3.49943L11.4912 5.34146L9.38178 6.02686L7.41016 4.59449V2.37642ZM4.93634 1.1751L6.58984 2.37642V4.59454L4.6185 6.02673L2.50898 5.34133L1.9104 3.49932C2.64335 2.43701 3.69977 1.61451 4.93634 1.1751ZM2.22551 10.919C1.38001 9.89084 0.859441 8.58588 0.822473 7.16261L2.2555 6.12147L4.36488 6.80684L5.11796 9.12464L3.81426 10.919H2.22551ZM9.05904 12.8265C8.41466 13.0549 7.72168 13.1797 7 13.1797C6.27834 13.1797 5.58537 13.0549 4.94102 12.8265L4.47787 11.4012L5.78154 9.60684L8.21849 9.60673L9.52221 11.4011L9.05904 12.8265ZM11.7745 10.919H10.1858L8.88212 9.12458L9.6352 6.80703L11.7446 6.12164L13.1775 7.16272C13.1406 8.58591 12.62 9.89081 11.7745 10.919Z" fill="#464965"/>
</svg>
