<svg width="14" height="14" viewBox="0 0 14 14" fill="none" xmlns="http://www.w3.org/2000/svg">
<path d="M6.34276 0.0269775C4.77664 0.173021 3.2478 0.847148 2.04627 2.04799C0.844748 3.24849 0.171306 4.77733 0.0256042 6.3455C1.74529 6.5449 3.57375 7.4239 5.07488 8.92504C6.5767 10.4265 7.45673 12.2563 7.65442 13.9747C9.22499 13.829 10.7501 13.1552 11.9526 11.955C13.1538 10.7549 13.8266 9.22533 13.9716 7.6575C12.256 7.45844 10.4245 6.57945 8.92332 5.07797C7.42321 3.57683 6.54319 1.74667 6.34276 0.0269775Z" fill="#464965"/>
<path d="M13.9996 6.78915C13.9487 5.06706 13.2673 3.36106 11.9547 2.04666C10.6413 0.73227 8.93323 0.0533555 7.21115 0C7.40474 1.50387 8.20336 3.11993 9.54204 4.45895C10.8807 5.79797 12.4947 6.59522 13.9996 6.78915Z" fill="#464965"/>
<path d="M0 7.21326C0.0506193 8.93466 0.73227 10.641 2.04632 11.9547C3.35935 13.2677 5.06535 13.9501 6.7871 14C6.59351 12.4982 5.79591 10.8832 4.45655 9.54414C3.11856 8.20581 1.50285 7.40821 0 7.21326Z" fill="#464965"/>
</svg>
