<svg width="14" height="14" viewBox="0 0 14 14" fill="none" xmlns="http://www.w3.org/2000/svg">
<path d="M2.34974 8.74405L2.93102 9.32532L1.26355 10.9928C1.42081 11.2177 1.59227 11.4343 1.77712 11.6418L11.6416 1.77737C11.4341 1.59252 11.2175 1.42104 10.9925 1.2638L9.32507 2.93127L8.74379 2.34999L10.2714 0.822331C4.14194 -2.32328 -2.32251 4.14671 0.822081 10.2717L2.34974 8.74405ZM8.16257 2.93124L8.74385 3.51252L7.87192 4.38445L7.29064 3.80317L8.16257 2.93124ZM6.70934 4.38445L7.29061 4.96573L6.41871 5.83763L5.83743 5.25635L6.70934 4.38445ZM5.25613 5.83766L5.83741 6.41893L4.9655 7.29084L4.38423 6.70956L5.25613 5.83766ZM3.80295 7.29084L4.38423 7.87211L3.5123 8.74405L2.93102 8.16277L3.80295 7.29084Z" fill="url(#paint0_linear_0_695)"/>
<path d="M11.6502 5.25628L11.0689 4.675L12.7364 3.00756C12.5791 2.78262 12.4077 2.56604 12.2228 2.35852L2.3584 12.223C2.56589 12.4078 2.7825 12.5793 3.00741 12.7365L4.67488 11.0691L5.25616 11.6503L3.7285 13.178C9.85804 16.3236 16.3225 9.85359 13.1779 3.72859L11.6502 5.25628ZM5.83738 11.0691L5.2561 10.4878L6.128 9.61593L6.70928 10.1972L5.83738 11.0691ZM7.29059 9.6159L6.70931 9.03462L7.58121 8.16272L8.16249 8.744L7.29059 9.6159ZM8.74379 8.16269L8.16252 7.58142L9.03442 6.70951L9.6157 7.29079L8.74379 8.16269ZM10.197 6.70946L9.61575 6.12818L10.4877 5.25628L11.0689 5.83756L10.197 6.70946Z" fill="url(#paint1_linear_0_695)"/>
<defs>
<linearGradient id="paint0_linear_0_695" x1="1.70547" y1="11.677" x2="9.15624" y2="0.301383" gradientUnits="userSpaceOnUse">
<stop stop-color="#3790FB"/>
<stop offset="1" stop-color="#D141F6"/>
</linearGradient>
<linearGradient id="paint1_linear_0_695" x1="4.06388" y1="14.0352" x2="11.5146" y2="2.65962" gradientUnits="userSpaceOnUse">
<stop stop-color="#3790FB"/>
<stop offset="1" stop-color="#D141F6"/>
</linearGradient>
</defs>
</svg>
