<svg width="13" height="14" viewBox="0 0 13 14" fill="none" xmlns="http://www.w3.org/2000/svg">
<path fill-rule="evenodd" clip-rule="evenodd" d="M6.19775 1.03387C6.24614 0.927288 6.26485 0.809616 6.2519 0.693282C6.23895 0.576947 6.19483 0.466267 6.1242 0.372929C6.05356 0.279592 5.95903 0.20706 5.85059 0.162994C5.74215 0.118927 5.62382 0.104962 5.5081 0.122571C2.38875 0.600971 0 3.29457 0 6.54717C0 10.1371 2.91005 13.0472 6.5 13.0472C10.0899 13.0472 13 10.1371 13 6.54717C12.9999 6.4865 12.9991 6.42582 12.9974 6.36517C12.9942 6.24798 12.9593 6.13385 12.8965 6.03486C12.8336 5.93588 12.7452 5.85573 12.6406 5.8029C12.5359 5.75007 12.4189 5.72653 12.3019 5.73477C12.185 5.74302 12.0725 5.78273 11.9762 5.84972C11.275 6.33811 10.4327 6.58264 9.57889 6.54571C8.72509 6.50878 7.90707 6.19243 7.25058 5.64531C6.59409 5.09818 6.13548 4.35057 5.94526 3.51742C5.75505 2.68426 5.84376 1.8117 6.19775 1.03387Z" fill="#464965"/>
</svg>
