<svg width="13" height="13" viewBox="0 0 13 13" fill="none" xmlns="http://www.w3.org/2000/svg">
<path d="M6.51012 0C5.66575 0 4.71363 2.5675 4.59151 5.85H8.42874C8.30662 2.56815 7.3545 0 6.51012 0ZM4.44913 0.325C2.04139 1.12385 0.228563 3.31565 0 5.85H3.28543C3.35792 3.61465 3.76345 1.63215 4.44913 0.325ZM8.57111 0.325C9.2568 1.63215 9.66233 3.61465 9.73481 5.85H13C12.7636 3.28575 11.0024 1.13815 8.57111 0.325ZM0.020248 7.15C0.255341 9.75455 2.07208 11.8885 4.46938 12.675C3.78435 11.3678 3.35792 9.38535 3.28543 7.15H0.020248ZM4.59151 7.15C4.71363 10.4318 5.66575 13 6.51012 13C7.3545 13 8.30662 10.4325 8.42874 7.15H4.59151ZM9.73481 7.15C9.66233 9.38535 9.2359 11.3678 8.55087 12.675C11.0135 11.841 12.7597 9.672 13 7.15H9.73481Z" fill="#464965"/>
</svg>
