<svg width="22" height="21" viewBox="0 0 22 21" fill="none" xmlns="http://www.w3.org/2000/svg">
<path d="M6.47745 13.6775V12.3576L9.77155 8.78606L9.76777 0H16.6228C19.3505 0 21.5618 2.22248 21.5618 4.964V15.8711C21.5618 15.8711 21.6548 18.1473 19.7862 19.6717L12.9764 11.0375L17.3488 6.41346L13.3655 6.40456L6.47745 13.6775Z" fill="#464965"/>
<path d="M16.7746 20.7899L10.9233 13.6822L6.53719 18.378L6.54009 17.9448L10.937 13.2559L17.1298 20.7924L16.7746 20.7899Z" fill="#464965"/>
<path d="M21.561 15.8711V4.94009C21.561 2.21175 19.3605 0 16.6457 0H9.76685L9.7707 8.79945L9.97008 0.205144L16.7254 0.219952C16.9485 0.221243 17.1718 0.240127 17.3906 0.284077C21.2037 1.05051 21.2784 4.61057 21.2784 4.61057V15.9634C21.2784 18.2679 19.6002 19.4372 19.6002 19.4372L19.7854 19.6717C20.8701 18.7656 21.561 17.3995 21.561 15.8711Z" fill="#464965"/>
<path opacity="0.4" d="M13.3676 6.40419L13.6245 6.146H17.6163L17.3506 6.41309L13.3676 6.40419Z" fill="#464965"/>
<path d="M9.77202 8.78589V9.05903L6.47745 12.6287L6.47785 12.3574L9.77202 8.78589Z" fill="#464965"/>
<path d="M2.66009 1.24662C1.03619 2.81067 1.15054 3.88761 1.0249 4.70364V15.9474C1.0249 15.9474 0.874992 18.8605 3.80318 20.1977C4.56015 20.5434 5.38687 20.7071 6.21825 20.7131L17.3014 21L10.9394 13.2735L6.53976 17.9652V13.6607L6.54024 13.6603V12.3428L6.53976 12.3432V0.0336925C6.53713 0.0333528 6.32085 0 5.97568 0C5.20222 0 3.78067 0.167172 2.66009 1.24662Z" fill="#464965"/>
<path d="M17.1294 20.9955H6.2161C5.32868 20.9891 4.4969 20.8114 3.74391 20.4674C0.763007 19.1062 0.881824 16.1114 0.883378 16.0814L0.883243 4.83399L0.884865 4.82326C0.901694 4.71423 0.91413 4.59943 0.927377 4.47777C1.01031 3.71514 1.12405 2.67061 2.56169 1.28588C3.72323 0.167036 5.19851 0 5.97447 0C6.31254 0 6.5153 0.0301602 6.53957 0.0336925V0.310025C6.51753 0.306697 6.2924 0.282378 5.97447 0.282378C5.24062 0.282378 3.84665 0.439225 2.7562 1.48967C1.39224 2.80334 1.28937 3.74876 1.20678 4.50848C1.1936 4.62939 1.18116 4.74385 1.16427 4.85559V16.0886C1.15839 16.2109 1.05735 18.9303 3.8601 20.2103C4.57699 20.5378 5.37039 20.707 6.21812 20.7131L17.1294 20.7926V20.9955Z" fill="#464965"/>
</svg>
