<svg width="33" height="33" viewBox="0 0 33 33" fill="none" xmlns="http://www.w3.org/2000/svg">
<rect width="33" height="33" rx="6" fill="#464965"/>
<path d="M11.6816 19.6775V18.3576L15.0266 14.7861L15.0228 6H21.9838C24.7537 6 26.9992 8.22248 26.9992 10.964V21.8711C26.9992 21.8711 27.0937 24.1473 25.1961 25.6717L18.281 17.0375L22.7211 12.4135L18.6761 12.4046L11.6816 19.6775Z" fill="white"/>
<path d="M22.1377 26.7897L16.1959 19.6821L11.742 24.3779L11.7449 23.9446L16.2098 19.2557L22.4984 26.7923L22.1377 26.7897Z" fill="white"/>
<path d="M26.9984 21.8711V10.9401C26.9984 8.21175 24.7638 6 22.0071 6H15.0218L15.0257 14.7994L15.2282 6.20514L22.088 6.21995C22.3145 6.22124 22.5413 6.24013 22.7635 6.28408C26.6356 7.05051 26.7114 10.6106 26.7114 10.6106V21.9634C26.7114 24.2679 25.0073 25.4372 25.0073 25.4372L25.1953 25.6717C26.2968 24.7656 26.9984 23.3995 26.9984 21.8711Z" fill="white"/>
<path opacity="0.4" d="M18.6783 12.4042L18.9391 12.146H22.9927L22.7229 12.4131L18.6783 12.4042Z" fill="white"/>
<path d="M15.0271 14.7859V15.059L11.6816 18.6287L11.682 18.3574L15.0271 14.7859Z" fill="white"/>
<path d="M7.80518 7.24662C6.15616 8.81067 6.27229 9.88761 6.1447 10.7036V21.9474C6.1447 21.9474 5.99247 24.8605 8.96595 26.1977C9.73462 26.5434 10.5741 26.7071 11.4184 26.7131L22.673 27L16.2126 19.2735L11.7448 23.9652V19.6607L11.7453 19.6603V18.3428L11.7448 18.3432V6.03369C11.7422 6.03335 11.5226 6 11.172 6C10.3866 6 8.94309 6.16717 7.80518 7.24662Z" fill="white"/>
<path d="M22.4982 26.9955H11.4162C10.515 26.9891 9.67039 26.8114 8.90577 26.4674C5.87876 25.1062 5.99941 22.1114 6.00099 22.0814L6.00086 10.834L6.0025 10.8233C6.01959 10.7142 6.03222 10.5994 6.04567 10.4778C6.12988 9.71514 6.24539 8.67061 7.70526 7.28588C8.88476 6.16704 10.3829 6 11.1708 6C11.5141 6 11.72 6.03016 11.7447 6.03369V6.31003C11.7223 6.3067 11.4937 6.28238 11.1708 6.28238C10.4256 6.28238 9.01009 6.43923 7.90278 7.48967C6.51772 8.80334 6.41326 9.74876 6.3294 10.5085C6.31601 10.6294 6.30338 10.7438 6.28623 10.8556V22.0886C6.28026 22.2109 6.17765 24.9303 9.02374 26.2103C9.75172 26.5378 10.5574 26.707 11.4182 26.7131L22.4982 26.7926V26.9955Z" fill="white"/>
</svg>
