<svg width="14" height="14" viewBox="0 0 14 14" fill="none" xmlns="http://www.w3.org/2000/svg">
<path d="M6.26541 0.416749C6.34029 0.289945 6.44755 0.184733 6.57649 0.111607C6.70543 0.038482 6.85154 0 7.00025 0C7.14897 0 7.29508 0.038482 7.42402 0.111607C7.55296 0.184733 7.66022 0.289945 7.7351 0.416749L9.63684 3.63855L13.3301 4.42822C13.4754 4.45937 13.6098 4.52757 13.7201 4.626C13.8303 4.72442 13.9125 4.84965 13.9584 4.9892C14.0043 5.12874 14.0124 5.27773 13.9818 5.4213C13.9512 5.56487 13.8829 5.69801 13.7839 5.80746L11.2664 8.58809L11.6474 12.2981C11.6625 12.4441 11.6384 12.5916 11.5777 12.7256C11.5169 12.8596 11.4216 12.9756 11.3012 13.0619C11.1808 13.1482 11.0396 13.2019 10.8917 13.2175C10.7437 13.2331 10.5942 13.2101 10.4581 13.1509L7.00025 11.6467L3.54242 13.1509C3.40628 13.2101 3.25678 13.2331 3.10883 13.2175C2.96089 13.2019 2.81968 13.1482 2.69931 13.0619C2.57893 12.9756 2.48361 12.8596 2.42285 12.7256C2.3621 12.5916 2.33803 12.4441 2.35307 12.2981L2.73409 8.58809L0.216584 5.80813C0.1174 5.69869 0.0490374 5.5655 0.0183227 5.42183C-0.0123921 5.27817 -0.00438487 5.12907 0.0415449 4.98942C0.0874747 4.84977 0.16972 4.72445 0.280071 4.62597C0.390421 4.5275 0.525015 4.45931 0.670417 4.42822L4.36367 3.63855L6.26541 0.416749Z" fill="#464965"/>
</svg>
