<svg width="14" height="14" viewBox="0 0 14 14" fill="none" xmlns="http://www.w3.org/2000/svg">
<path d="M9.20625 3.89271L9.31777 4.08163L9.53229 4.1275L13.2252 4.9171C13.2253 4.91711 13.2253 4.91712 13.2253 4.91712C13.2862 4.9302 13.3419 4.95866 13.3871 4.99897C13.4322 5.03927 13.4652 5.08991 13.4835 5.14547L13.9584 4.9892L13.4835 5.14548C13.5017 5.20101 13.5049 5.26008 13.4928 5.31702C13.4806 5.37398 13.4534 5.4275 13.4131 5.47201L10.8958 8.25251L10.7463 8.41762L10.769 8.63917L11.1501 12.3491L11.1501 12.3492C11.156 12.4071 11.1465 12.4656 11.1223 12.5192C11.0979 12.5728 11.0594 12.62 11.0098 12.6556C10.9602 12.6912 10.9014 12.7137 10.8392 12.7202C10.777 12.7268 10.7144 12.7171 10.6576 12.6924L10.6575 12.6924L7.1997 11.1882L7.00025 11.1015L6.80081 11.1882L3.34298 12.6924L3.34288 12.6924C3.28615 12.7171 3.22347 12.7268 3.16128 12.7202C3.09911 12.7137 3.0403 12.6912 2.99066 12.6556C2.94107 12.62 2.90256 12.5728 2.87826 12.5192L2.42285 12.7256L2.87825 12.5192C2.85397 12.4656 2.84449 12.4071 2.85044 12.3492L2.85045 12.3491L3.23148 8.63917L3.25424 8.41758L3.10471 8.25246L0.587199 5.4725L0.587063 5.47235C0.546722 5.42784 0.51946 5.3743 0.507273 5.3173C0.495091 5.26032 0.49824 5.2012 0.516517 5.14563C0.534805 5.09002 0.567807 5.03934 0.612982 4.99903C0.658201 4.95867 0.713979 4.93021 0.774964 4.91717L4.46822 4.1275L4.68274 4.08163L4.79426 3.89271L6.69596 0.670979C6.69597 0.670957 6.69598 0.670934 6.696 0.670911C6.72612 0.619926 6.76974 0.57682 6.82314 0.546532C6.87662 0.516206 6.93771 0.5 7.00025 0.5C7.0628 0.5 7.12389 0.516206 7.17736 0.546532C7.23077 0.57682 7.27439 0.619926 7.30451 0.670911C7.30453 0.670934 7.30454 0.670957 7.30455 0.670979L9.20625 3.89271Z" stroke="#828FA4"/>
</svg>
