<svg width="72" height="32" viewBox="0 0 72 32" fill="none" xmlns="http://www.w3.org/2000/svg">
<path d="M29.4343 10.6146C29.3632 10.6431 29.3774 10.7177 29.349 10.771C29.1784 11.0944 28.9261 11.3005 28.553 11.3289C28.4642 11.336 28.3718 11.3431 28.2829 11.3431C21.908 11.3431 15.533 11.3431 9.15804 11.3431C8.87376 11.3431 8.60371 11.3182 8.37273 11.1263C7.78996 10.6466 7.91432 9.77956 8.62501 9.44909C9.48851 9.0511 10.3591 8.66732 11.2262 8.27644C13.5431 7.23527 15.8599 6.19409 18.1768 5.15292C18.3012 5.09607 18.4291 5.04987 18.557 5.00012C18.6672 5.00012 18.7809 5.00012 18.891 5.00012C19.3423 5.06053 19.7261 5.30217 20.1277 5.47984C21.4922 6.08749 22.8496 6.69869 24.2106 7.31344C25.4117 7.85713 26.6163 8.3937 27.8138 8.93739C28.1301 9.08308 28.4499 9.22522 28.7698 9.3638C29.1393 9.52371 29.4058 9.75824 29.4378 10.1847V10.604L29.4343 10.6146Z" fill="#828FA4"/>
<path d="M29.4346 25.6826C29.3635 25.7111 29.3742 25.7857 29.3493 25.839C29.1716 26.2121 28.8767 26.4111 28.4645 26.436C28.4289 26.436 28.3934 26.436 28.3614 26.436C21.9331 26.436 15.5013 26.436 9.07306 26.436C8.57557 26.436 8.19891 26.1943 8.05677 25.7857C7.84001 25.1603 8.26643 24.5349 8.9487 24.478C9.03043 24.4709 9.1157 24.478 9.20098 24.478C15.5262 24.478 21.8514 24.478 28.1766 24.478C28.93 24.478 29.168 24.6344 29.4346 25.3095V25.6862V25.6826Z" fill="#828FA4"/>
<path d="M27.2311 21.9524C27.0392 21.9524 26.993 21.8991 26.993 21.7108C27.0001 18.9497 26.9966 16.1887 26.993 13.4276C26.993 13.2712 26.993 13.1717 27.2027 13.186C27.423 13.1966 27.6042 13.0829 27.6859 12.859C27.7499 12.6778 27.7108 12.5108 27.5829 12.3722C27.4443 12.2194 27.256 12.2052 27.0641 12.2052C22.8105 12.2052 18.5571 12.2052 14.3035 12.2052C12.9639 12.2052 11.6242 12.2052 10.2881 12.2052C9.93983 12.2052 9.72306 12.3864 9.70885 12.6743C9.69819 12.9692 9.89363 13.1824 10.2383 13.186C10.4195 13.186 10.4302 13.257 10.4302 13.4027C10.4302 16.178 10.4302 18.9533 10.4302 21.7285C10.4302 21.7641 10.4302 21.7996 10.4302 21.8316C10.4409 21.9275 10.3947 21.956 10.3094 21.9453C10.2561 21.9418 10.1992 21.9453 10.1424 21.9489C9.4139 21.9844 8.98748 22.7591 9.34283 23.3951C9.56315 23.786 9.92207 23.9033 10.3449 23.9033C13.1273 23.9033 15.9097 23.9033 18.6921 23.9033C21.4745 23.9033 24.2426 23.9033 27.0179 23.9033C27.1138 23.9033 27.2133 23.8997 27.3093 23.8855C27.8459 23.8215 28.2296 23.3916 28.2048 22.887C28.1799 22.354 27.7748 21.956 27.224 21.9524H27.2311ZM15.0924 21.9524C14.2538 21.9418 13.4187 21.9418 12.5801 21.9524C12.4166 21.9524 12.3882 21.9062 12.3882 21.7534C12.3917 18.9639 12.3917 16.1744 12.3882 13.385C12.3882 13.2286 12.4273 13.1895 12.5836 13.1931C13.4258 13.2002 14.2715 13.2002 15.1137 13.1931C15.2629 13.1931 15.2985 13.2322 15.2949 13.3779C15.2878 14.7815 15.2949 16.1816 15.2949 17.5852C15.2949 18.9888 15.2949 20.3605 15.2985 21.7499C15.2985 21.9133 15.2594 21.9595 15.0924 21.956V21.9524ZM19.9713 21.9524C19.1291 21.9453 18.2834 21.9453 17.4412 21.9524C17.2813 21.9524 17.2493 21.9098 17.2493 21.757C17.2564 20.3569 17.2529 18.9533 17.2529 17.5532C17.2529 16.1531 17.2529 14.7921 17.2493 13.4134C17.2493 13.2499 17.2742 13.1895 17.459 13.1931C18.3012 13.2037 19.1469 13.2002 19.9891 13.1931C20.1312 13.1931 20.1774 13.2286 20.1774 13.3779C20.1739 16.1744 20.1739 18.9675 20.1774 21.7641C20.1774 21.9311 20.1206 21.9524 19.9749 21.9524H19.9713ZM25.0422 21.7321C25.0422 21.8956 25.0173 21.956 24.8325 21.956C23.9903 21.9453 23.1446 21.9489 22.3024 21.956C22.1674 21.956 22.1247 21.924 22.1247 21.7854C22.1283 18.9817 22.1283 16.178 22.1247 13.3743C22.1247 13.2393 22.1567 13.1966 22.2989 13.1966C23.1482 13.2037 24.001 13.2037 24.8503 13.1966C25.0031 13.1966 25.0457 13.2286 25.0457 13.3885C25.0386 14.7886 25.0422 16.1922 25.0422 17.5923C25.0422 18.9924 25.0422 20.3533 25.0457 21.7357L25.0422 21.7321Z" fill="#828FA4"/>
<path d="M34.8107 9.06856C35.1448 9.00815 35.8164 8.95129 36.4595 8.95129C37.2378 8.95129 37.7139 9.02592 38.1332 9.27111C38.5277 9.48076 38.8013 9.86454 38.8013 10.3833C38.8013 10.9022 38.5099 11.3357 37.8738 11.5809V11.5986C38.517 11.7657 38.9967 12.2596 38.9967 12.9774C38.9967 13.4962 38.7622 13.8977 38.4104 14.182C38.0018 14.5089 37.3159 14.6937 36.193 14.6937C35.5641 14.6937 35.0986 14.6511 34.8143 14.6084V9.06856H34.8107ZM36.0757 11.2255H36.4951C37.1738 11.2255 37.5256 10.9484 37.5256 10.5326C37.5256 10.1168 37.1987 9.87875 36.623 9.87875C36.3387 9.87875 36.1788 9.89652 36.0793 9.91073V11.2255H36.0757ZM36.0757 13.7272C36.2001 13.7449 36.3529 13.7449 36.5697 13.7449C37.1453 13.7449 37.6571 13.5175 37.6571 12.9241C37.6571 12.3626 37.1454 12.1388 36.5093 12.1388H36.0757V13.7272Z" fill="#828FA4"/>
<path d="M43.2502 13.6432C43.2502 14.027 43.268 14.4037 43.3177 14.6311H42.17L42.0954 14.2225H42.0705C41.804 14.5494 41.3847 14.7235 40.8978 14.7235C40.0699 14.7235 39.576 14.123 39.576 13.4691C39.576 12.4066 40.5282 11.9056 41.9781 11.9056V11.8558C41.9781 11.6284 41.8608 11.3193 41.2318 11.3193C40.8125 11.3193 40.3719 11.4614 40.1019 11.6284L39.8673 10.8076C40.1516 10.6476 40.713 10.438 41.4557 10.438C42.8203 10.438 43.2467 11.2411 43.2467 12.2112V13.6432H43.2502ZM42.0208 12.698C41.3527 12.698 40.8339 12.8579 40.8339 13.3412C40.8339 13.6681 41.0506 13.828 41.3349 13.828C41.6441 13.828 41.9106 13.6184 41.9959 13.359C42.0136 13.2914 42.0208 13.2168 42.0208 13.1422V12.698Z" fill="#828FA4"/>
<path d="M44.2632 11.8434C44.2632 11.3317 44.2455 10.9053 44.2313 10.5393H45.3364L45.3933 11.1078H45.4181C45.5851 10.8413 45.9938 10.4469 46.6796 10.4469C47.5147 10.4469 48.1437 11.0084 48.1437 12.213V14.6294H46.8715V12.3622C46.8715 11.8363 46.6867 11.4739 46.2283 11.4739C45.8765 11.4739 45.6669 11.7155 45.5745 11.95C45.5425 12.0353 45.5318 12.149 45.5318 12.2663V14.6258H44.2597V11.8399L44.2632 11.8434Z" fill="#828FA4"/>
<path d="M50.439 12.2623H50.4568C50.5492 12.0882 50.6487 11.9176 50.7482 11.7684L51.5761 10.5389H53.1077L51.6437 12.1948L53.3173 14.6289H51.7538L50.7588 12.9481L50.4426 13.3497V14.6289H49.1704V8.6875H50.4426V12.2588L50.439 12.2623Z" fill="#828FA4"/>
<path d="M35.9052 20.1007H34.3807V19.0311H38.716V20.1007H37.1773V24.667H35.9052V20.1007Z" fill="#828FA4"/>
<path d="M38.9006 21.9276C38.9006 21.3271 38.8934 20.9326 38.8685 20.5808H39.9559L40.0057 21.3342H40.0377C40.2473 20.7301 40.7412 20.4813 41.1428 20.4813C41.26 20.4813 41.3169 20.4884 41.4093 20.5062V21.7037C41.3098 21.686 41.2103 21.6717 41.0682 21.6717C40.5991 21.6717 40.2829 21.924 40.1976 22.3149C40.1798 22.4002 40.1727 22.4997 40.1727 22.5992V24.6744H38.9006V21.9311V21.9276Z" fill="#828FA4"/>
<path d="M45.393 23.683C45.393 24.0668 45.4107 24.4435 45.4605 24.6709H44.3127L44.2381 24.2622H44.2132C43.9467 24.5892 43.5274 24.7633 43.0406 24.7633C42.2126 24.7633 41.7186 24.1627 41.7186 23.5089C41.7186 22.4464 42.671 21.9454 44.1208 21.9454V21.8956C44.1208 21.6682 44.0035 21.359 43.3746 21.359C42.9553 21.359 42.5146 21.5012 42.2445 21.6682L42.01 20.8473C42.2943 20.6874 42.8558 20.4778 43.5984 20.4778C44.963 20.4778 45.3894 21.2809 45.3894 22.251V23.683H45.393ZM44.1634 22.7378C43.4954 22.7378 42.9766 22.8977 42.9766 23.381C42.9766 23.7079 43.1934 23.8678 43.4776 23.8678C43.7868 23.8678 44.0533 23.6582 44.1386 23.3987C44.1563 23.3312 44.1634 23.2566 44.1634 23.182V22.7378Z" fill="#828FA4"/>
<path d="M46.4059 21.8859C46.4059 21.3742 46.3881 20.9478 46.3739 20.5818H47.479L47.5359 21.1503H47.5608C47.7278 20.8838 48.1364 20.4894 48.8222 20.4894C49.6573 20.4894 50.2863 21.0508 50.2863 22.2555V24.6718H49.0141V22.4047C49.0141 21.8788 48.8294 21.5163 48.371 21.5163C48.0192 21.5163 47.8095 21.758 47.7171 21.9925C47.6851 22.0778 47.6745 22.1915 47.6745 22.3088V24.6683H46.4023V21.8823L46.4059 21.8859Z" fill="#828FA4"/>
<path d="M51.3024 23.5658C51.5369 23.7079 52.0202 23.8678 52.3968 23.8678C52.7735 23.8678 52.9405 23.7434 52.9405 23.5338C52.9405 23.3241 52.8161 23.2175 52.3471 23.0576C51.4942 22.7733 51.1673 22.3114 51.1744 21.8281C51.1744 21.057 51.8283 20.4813 52.841 20.4813C53.3172 20.4813 53.7365 20.5986 53.9888 20.723L53.772 21.6007C53.5872 21.5012 53.2283 21.3661 52.8836 21.3661C52.5745 21.3661 52.3968 21.4905 52.3968 21.6931C52.3968 21.8956 52.5567 21.9951 53.0578 22.1692C53.836 22.4357 54.1522 22.8373 54.1629 23.4343C54.1629 24.2054 53.5695 24.7633 52.3968 24.7633C51.8602 24.7633 51.3841 24.6389 51.0749 24.4719L51.3024 23.5693V23.5658Z" fill="#828FA4"/>
<path d="M55.0906 24.6703V21.5148H54.5469V20.5767H55.0906V20.4168C55.0906 19.9228 55.2399 19.3792 55.6023 19.0451C55.9292 18.7431 56.3627 18.6365 56.7394 18.6365C57.0166 18.6365 57.2334 18.6791 57.4075 18.7218L57.3577 19.699C57.2476 19.667 57.1161 19.6421 56.9491 19.6421C56.5297 19.6421 56.3557 19.969 56.3557 20.3706V20.5802H57.1765V21.5184H56.3663V24.6738H55.0941L55.0906 24.6703Z" fill="#828FA4"/>
<path d="M58.6901 23.029C58.7221 23.555 59.2516 23.8073 59.845 23.8073C60.2785 23.8073 60.6303 23.7504 60.975 23.6331L61.142 24.4931C60.7227 24.6672 60.2145 24.7525 59.6602 24.7525C58.2708 24.7525 57.4784 23.9494 57.4784 22.6701C57.4784 21.6325 58.1216 20.4847 59.5465 20.4847C60.8684 20.4847 61.3694 21.5153 61.3694 22.5244C61.3694 22.7412 61.3446 22.9331 61.3268 23.0255H58.6901V23.029ZM60.1862 22.1584C60.1862 21.8493 60.0511 21.3305 59.4683 21.3305C58.9318 21.3305 58.715 21.8244 58.683 22.1584H60.1897H60.1862Z" fill="#828FA4"/>
<path d="M62.13 21.9276C62.13 21.3271 62.1229 20.9326 62.098 20.5808H63.1854L63.2351 21.3342H63.2671C63.4768 20.7301 63.9707 20.4813 64.3722 20.4813C64.4895 20.4813 64.5463 20.4884 64.6387 20.5062V21.7037C64.5392 21.686 64.4398 21.6717 64.2976 21.6717C63.8286 21.6717 63.5123 21.924 63.427 22.3149C63.4093 22.4002 63.4021 22.4997 63.4021 22.5992V24.6744H62.13V21.9311V21.9276Z" fill="#828FA4"/>
</svg>
