<svg width="72" height="32" viewBox="0 0 72 32" fill="none" xmlns="http://www.w3.org/2000/svg">
<path d="M14.8901 12.2579C14.7214 12.1064 14.5189 11.9886 14.2994 11.8876C14.4007 11.8203 14.4682 11.7698 14.5695 11.7193C14.8395 11.5678 15.0589 11.3491 15.1602 11.0293C15.3796 10.3393 15.2614 9.69974 14.8395 9.1107C14.4682 8.58898 13.9281 8.37019 13.2868 8.37019C12.4767 8.3197 11.6835 8.3197 10.8734 8.3197H9.05064L9.00001 9.59877H9.59071V14.715H9.00001V15.9436H13.0168C13.1856 15.9436 13.3374 15.8931 13.5062 15.8931C13.9788 15.8426 14.4176 15.6743 14.7889 15.3545C15.3121 14.9338 15.5315 14.3953 15.5315 13.7557C15.5315 13.1667 15.3121 12.6281 14.8901 12.2579ZM11.194 9.54828C11.7679 9.59877 12.3079 9.54828 12.8986 9.59877C13.0674 9.59877 13.2193 9.71657 13.3881 9.81755C13.8775 10.1373 13.8775 10.8273 13.3881 11.1976C13.1856 11.3659 12.9661 11.4164 12.6961 11.4164H11.194V9.54828ZM13.0674 14.6645H11.194V12.544H12.2067C12.4767 12.544 12.7974 12.544 13.0674 12.5945C13.4387 12.6954 13.8269 12.9142 13.9281 13.335C14.1307 13.9745 13.7087 14.5635 13.0674 14.6645Z" fill="#828FA4"/>
<path d="M16.8482 11.3323C16.3756 12.0896 16.3081 12.9311 16.4769 13.7894C16.6963 14.6309 17.1182 15.3377 17.9283 15.7585C18.519 16.0783 19.1603 16.1287 19.8017 16.0278C20.5611 15.91 21.1518 15.5397 21.5738 14.9002C21.7257 14.6309 21.8438 14.3616 21.8944 14.0418H21.8438C21.4219 14.0418 20.9324 14.0923 20.5105 14.0923C20.4599 14.0923 20.4092 14.0923 20.4092 14.1428C20.2573 14.5636 19.9367 14.8328 19.4472 14.8833C18.9072 14.9338 18.4346 14.7824 18.1646 14.2943C18.0464 14.0755 17.9958 13.8736 17.9452 13.6548C17.8945 13.5538 17.8945 13.436 17.8945 13.335H22.0126L22.0463 13.3013C22.0463 12.4935 21.8269 11.753 21.405 11.1135C20.2742 9.51464 17.8102 9.68294 16.8482 11.3323ZM20.4599 12.3084L17.9958 12.2579C18.0464 11.6184 18.7384 11.0966 19.3966 11.1808C20.0379 11.2481 20.5105 11.7193 20.4599 12.3084Z" fill="#828FA4"/>
<path d="M38.282 11.1473C38.5014 10.9285 38.6533 10.7265 38.8727 10.5077C39.3621 10.087 39.8853 9.91869 40.5267 10.0197C41.0161 10.1207 41.2693 10.3899 41.438 10.8275C41.4887 10.9285 41.4887 11.0463 41.5393 11.1473C41.5899 11.0968 41.6406 10.979 41.7081 10.9285C41.9781 10.5077 42.3494 10.1207 42.8895 10.0197C43.3789 9.91869 43.8515 9.91869 44.2228 10.2385C44.5434 10.5077 44.6447 10.878 44.7122 11.2482V15.1023H45.5223V15.7923H43.919V11.669C43.919 11.5007 43.919 11.3997 43.8683 11.2482C43.7671 10.7097 43.3789 10.4404 42.8051 10.6087C42.3831 10.7097 42.1131 10.979 41.8431 11.3492C41.6237 11.669 41.5224 12.0392 41.5224 12.4095V15.1359H42.3831V15.8259H40.6279V11.6522C40.6279 11.4839 40.6279 11.3324 40.5773 11.1641C40.476 10.8443 40.2566 10.676 39.936 10.6255C39.4465 10.5751 39.1258 10.7938 38.8052 11.1136C38.4339 11.5344 38.2145 11.9719 38.2651 12.561V15.1864H39.1258V15.8764H36.6787V15.1864H37.4888V10.7602H36.6787V10.0702H38.3833C38.2314 10.4404 38.2314 10.777 38.282 11.1473Z" fill="#828FA4"/>
<path d="M28.4762 12.7966H26.7041C26.7041 12.5778 26.7041 12.3085 26.7548 12.1066H29.4382V15.8428H28.5944V14.6647C28.5606 14.6983 28.5437 14.732 28.5437 14.7657C28.0037 15.5735 27.3117 15.9942 26.3497 16.0447C25.6071 16.0447 25.0164 15.7754 24.4257 15.3042C23.7844 14.7152 23.4131 13.9747 23.2443 13.1668C23.0249 12.1066 23.143 11.0294 23.565 10.0197C23.8856 9.32964 24.3751 8.7406 25.067 8.42083C26.1978 7.88228 27.5817 8.10106 28.3919 9.27915C28.3919 9.32964 28.4425 9.32964 28.4931 9.38013V8.20204H29.3032V10.6087H28.4256C28.375 10.2889 28.2062 10.0197 28.0543 9.75038C27.6324 9.16134 27.0417 8.84158 26.3497 8.84158C25.7084 8.84158 25.1683 9.16134 24.797 9.6494C24.4257 10.0701 24.2569 10.6087 24.1557 11.1977C24.0544 12.0056 24.105 12.7461 24.3751 13.4866C24.5439 13.9073 24.7464 14.2944 25.1177 14.6142C25.759 15.2032 26.5691 15.3042 27.3117 14.934C28.0543 14.6142 28.5437 13.7054 28.4762 12.7966Z" fill="#828FA4"/>
<path d="M52.0877 12.2243C51.9358 11.5847 51.6658 10.9957 51.1257 10.575C50.3662 9.93542 49.4549 9.93542 48.7123 10.474C48.4422 10.6759 48.1891 10.9452 48.0203 11.2145C47.9697 11.2145 47.9697 11.265 47.9191 11.3155V8H46.3157V8.69002H47.1258V15.2536H46.3157V15.9437H47.9697V14.9339C48.1216 15.1022 48.2903 15.2536 48.3916 15.4219C48.9317 16.011 49.7924 16.2298 50.535 15.9605C51.0245 15.7585 51.3958 15.3714 51.6658 14.9507C52.189 14.0924 52.3071 13.1836 52.0877 12.2243ZM51.1763 12.9648C51.1763 13.4865 51.0751 13.9746 50.9569 14.4963C50.7038 15.0348 50.1637 15.3546 49.573 15.3041C48.8811 15.2031 48.1722 14.6141 48.0709 13.9241C47.9697 13.5033 48.0203 13.1163 47.9697 12.6955C47.8515 11.8877 48.4422 11.1472 49.0329 10.8779C49.6743 10.5581 50.3831 10.7769 50.8051 11.366C51.0076 11.7362 51.1257 12.1738 51.1763 12.5945V12.9648Z" fill="#828FA4"/>
<path d="M35.8178 15.9439C35.8178 15.7419 35.7672 15.4726 35.7672 15.2538H34.9571L34.9233 14.9846V11.5681C34.8221 10.9286 34.5014 10.4573 33.9107 10.1881C33.1681 9.8683 32.4086 9.8683 31.666 10.1881C31.0247 10.5078 30.704 10.9959 30.5353 11.6859H31.2779C31.4466 11.6859 31.4466 11.6186 31.4973 11.5176C31.6154 11.1305 31.8854 10.8108 32.3074 10.7098C32.628 10.6593 32.9993 10.6088 33.32 10.7098C33.7082 10.8108 34.0288 11.0296 34.1301 11.4503C34.1807 11.7196 34.1807 12.0393 34.1807 12.3086C33.7588 12.3759 33.32 12.4264 32.9487 12.4769C32.4086 12.5779 31.8854 12.6789 31.396 12.8977C31.0247 13.0491 30.704 13.2174 30.5353 13.5877C30.2146 14.1767 30.3159 14.6984 30.6365 15.237C31.0078 15.826 31.5479 16.0953 32.2399 16.0448C33.05 15.9943 33.6913 15.6746 34.1132 14.9846L34.1639 14.9341V15.9439H35.8178ZM34.147 14.1936C33.9951 14.9341 33.185 15.5231 32.4424 15.4726C31.7504 15.4221 31.2779 14.7826 31.3791 14.1431C31.3791 13.8738 31.531 13.7055 31.6998 13.6045C31.9698 13.4026 32.2905 13.2847 32.6112 13.2343C33.1512 13.1333 33.6238 13.0155 34.1132 12.965H34.2145C34.147 13.3352 34.2145 13.7055 34.147 14.1936Z" fill="#828FA4"/>
<path d="M59.6318 14.4627C59.4631 14.732 59.3112 14.9844 59.0411 15.1527C58.4504 15.523 57.4884 15.3042 57.0665 14.6646C56.864 14.3449 56.7458 14.0251 56.6952 13.7053C56.6446 13.5371 56.6446 13.3856 56.594 13.1668H60.7626L60.7457 13.049C60.7457 12.4095 60.6445 11.8204 60.3744 11.2819C59.9019 10.3226 58.923 9.78401 57.8597 9.95231C57.1171 10.0701 56.5264 10.4909 56.1551 11.1304C55.6826 11.8877 55.5644 12.7292 55.7332 13.5875C55.9526 14.9339 56.864 15.8427 58.1973 15.9437C59.1762 16.0615 60.1888 15.4725 60.5601 14.6142C60.6107 14.5132 60.6107 14.3954 60.6614 14.2944H59.8512C59.7331 14.2944 59.6825 14.3617 59.6318 14.4627ZM58.1804 10.7601C58.7205 10.6592 59.0918 10.8779 59.4124 11.2987C59.615 11.6689 59.7837 12.0392 59.7837 12.5273H56.6277C56.6952 11.6185 57.1678 10.8779 58.1804 10.7601Z" fill="#828FA4"/>
<path d="M53.3703 8.63953H52.5602V8H54.2141V15.2031H54.9567V15.8932H52.5602V15.2031H53.3703V8.63953Z" fill="#828FA4"/>
<path d="M55.7657 24.9649C55.7657 24.9649 55.7534 24.9614 55.7481 24.9614V24.9649H55.7657Z" fill="#828FA4"/>
<path d="M57.1996 19.4277V20.1177C57.1321 19.9999 57.0814 19.9494 57.0308 19.8989C56.4401 19.0406 55.1574 19.1921 54.6174 19.9999C54.4655 20.3197 54.2967 20.6394 54.2967 21.0097C54.2461 21.5987 54.2967 22.1205 54.668 22.6085C55.2081 23.3659 56.3895 23.5173 57.0308 22.7768C57.0983 22.7263 57.1489 22.6085 57.1996 22.558V23.5173C57.1489 23.8371 57.0477 24.0391 56.7776 24.2074C56.1363 24.5944 55.3768 24.4261 55.0055 23.7866C54.9549 23.7866 54.9549 23.7361 54.9043 23.7361H54.2629C54.4317 24.2074 54.7018 24.5271 55.1237 24.7459C55.2722 24.8603 55.5321 24.9108 55.7481 24.9613V24.9479H56.2882C56.3895 24.9479 56.457 24.8974 56.5582 24.8974C57.3008 24.7291 57.7903 24.2578 57.7903 23.45V19.9158H58.381V19.4277H57.1996ZM57.1489 21.3968V21.7165C57.1489 22.4571 56.2882 23.0461 55.5962 22.7768C55.2249 22.6085 55.0562 22.3392 54.9549 21.969C54.8368 21.4978 54.8368 21.077 55.0055 20.5889C55.2756 19.9326 55.9675 19.7306 56.5582 20.1009C56.8789 20.2692 57.0983 20.5385 57.1489 20.9087V21.3968Z" fill="#828FA4"/>
<path d="M23.7658 19.7308C23.6645 20.2693 23.4958 20.7911 23.3945 21.3296C23.2257 22.0701 23.0232 22.8275 22.8544 23.568C22.8544 23.6185 22.8544 23.6689 22.7532 23.6689H21.3017C21.2511 23.5006 21.2005 23.3492 21.2005 23.1809C20.8292 21.8513 20.4579 20.5049 20.1372 19.1754C20.1372 19.0744 20.0866 19.0071 19.9684 19.0071H19.5971V17.8795H21.8924V19.0071H21.3017C21.5718 20.1347 21.8418 21.2455 22.1118 22.3731C22.1625 22.2721 22.1625 22.1038 22.2131 22.0028C22.4831 20.6732 22.7532 19.3269 23.0738 18.0478C23.0738 17.9973 23.1245 17.9468 23.1751 17.9468H24.4578C24.559 17.9468 24.559 17.9973 24.559 18.0478C24.8797 19.4278 25.1497 20.8247 25.4704 22.2048C25.4704 22.2384 25.4873 22.2721 25.521 22.3057L26.2636 18.9903H25.6729V17.8627H27.9682V18.9903H27.5969C27.5463 18.9903 27.4957 18.9903 27.4957 19.0912C27.1244 20.5386 26.6856 22.0196 26.3143 23.467C26.2636 23.568 26.2636 23.6353 26.1455 23.6353H24.8628C24.7953 23.6353 24.7391 23.6016 24.694 23.5343C24.3734 22.3057 24.1033 21.0772 23.7827 19.7981C23.8052 19.7869 23.7996 19.7644 23.7658 19.7308Z" fill="#828FA4"/>
<path d="M19.3102 22.3899C19.2315 22.3899 19.1752 22.3562 19.1414 22.2889C18.4326 20.2525 17.7913 18.1824 17.0993 16.146C17.0318 16.0955 17.0318 16.045 16.9305 16.045H15.2766C15.1584 16.045 15.1078 16.045 15.1078 16.146C14.4665 18.2329 13.7745 20.2525 13.1332 22.3394C13.0882 22.4067 13.0319 22.4404 12.9644 22.4404H12.4749V23.6689H14.2471C14.2808 23.6353 14.2977 23.6016 14.2977 23.568C14.4496 23.0799 14.5508 22.6087 14.7196 22.1206C14.7196 22.0701 14.7196 22.0196 14.8209 22.0196H17.3356C17.3862 22.0196 17.4368 22.0196 17.4368 22.0701C17.5044 22.2384 17.555 22.3899 17.6056 22.5582C17.7069 22.9453 17.825 23.3155 17.9263 23.6858H19.6309V22.4572C19.479 22.4572 19.3102 22.4572 19.3102 22.3899ZM15.0403 20.9088C15.3609 19.7813 15.6816 18.721 16.0529 17.5934C16.3736 18.6705 16.6942 19.7813 17.0149 20.9088H15.0403Z" fill="#828FA4"/>
<path d="M44.2043 18.9062C43.1411 17.4756 40.8795 17.4083 39.8162 18.8557C39.1749 19.714 39.0568 20.6733 39.2762 21.6831C39.4956 22.5414 39.985 23.1809 40.7276 23.5512C41.3183 23.871 41.909 23.9214 42.5504 23.8205C43.6305 23.6522 44.3225 23.0631 44.6431 22.0533C44.6431 22.0029 44.6938 21.9355 44.6938 21.8346C44.2718 21.885 43.7824 21.885 43.3605 21.885C43.2423 21.885 43.2423 21.9355 43.1917 21.986C43.0398 22.3058 42.871 22.5246 42.5504 22.6256C42.0778 22.777 41.639 22.7265 41.2677 22.4573C40.8458 22.1375 40.677 21.6663 40.6264 21.1277H44.7444C44.795 20.4882 44.525 19.4616 44.2043 18.9062ZM40.6264 20.0506C40.677 19.4616 41.3183 18.9398 41.9597 18.9735C42.601 18.9735 43.0904 19.4616 43.0904 20.1011L40.6264 20.0506Z" fill="#828FA4"/>
<path d="M33.6053 22.6591V21.6493C33.6053 20.9593 33.656 20.3198 33.6053 19.6802C33.5547 18.9902 33.2341 18.4012 32.5421 18.1319C31.6813 17.7616 30.8375 17.7616 29.9768 18.0814C29.5548 18.2497 29.1835 18.5695 28.9641 18.9902C28.7953 19.1922 28.7447 19.4614 28.7447 19.7307L30.1286 19.7812V19.6129C30.1286 19.1922 30.3987 18.9734 30.77 18.8724C30.9725 18.8219 31.2425 18.8219 31.4619 18.8724C31.7826 18.9229 32.002 19.1417 32.0526 19.4614C32.0526 19.6297 32.1033 19.8317 32.1033 20C32.0695 20 32.0864 20.0393 32.1539 20.1178C31.6813 20.1851 31.2425 20.2356 30.8206 20.2861C30.2805 20.3366 29.808 20.4376 29.3185 20.7068C28.2553 21.2286 28.2553 22.6254 28.9472 23.3155C29.7573 24.056 31.1919 24.1065 32.0526 23.3659L32.2721 23.1472V23.7867H34.0948V22.6591H33.6053ZM31.867 22.3057C31.4788 22.6759 30.905 22.8442 30.4156 22.6759C30.0949 22.5749 29.8755 22.3562 29.8755 22.0364C29.8755 21.7166 29.9768 21.4474 30.2974 21.3464C30.5506 21.2286 30.77 21.1781 31.04 21.1276C31.3607 21.0098 31.732 21.0098 32.1033 20.9593C32.1708 21.4473 32.1708 21.9186 31.867 22.3057Z" fill="#828FA4"/>
<path d="M36.7615 22.558H37.4535V23.6856H34.77V22.558H35.3607V19.0406H34.77V17.913H36.7446V18.7713C36.7953 18.7208 36.8459 18.603 36.8459 18.5525C37.0653 18.2328 37.3353 17.913 37.7573 17.8625C38.0779 17.7615 38.4492 17.812 38.7699 17.8625L38.8205 17.913V19.1921C38.6517 19.1921 38.4999 19.1416 38.3311 19.1416C37.9091 19.0911 37.4703 19.1921 37.1497 19.4613C36.8796 19.6801 36.7784 19.9999 36.7277 20.3196V22.457C36.7165 22.4907 36.7277 22.5243 36.7615 22.558Z" fill="#828FA4"/>
<path d="M50.3305 20.4209C50.0099 19.7309 49.4698 19.3606 48.6766 19.3606C47.8834 19.3606 47.2927 19.7309 46.972 20.4209C46.6513 21.1109 46.702 21.8682 46.972 22.5583C47.242 23.1978 47.7315 23.6354 48.4234 23.6858C49.1829 23.7363 49.7736 23.5176 50.1955 22.878C50.4656 22.5078 50.5668 22.0365 50.5668 21.498C50.5668 21.1782 50.5162 20.808 50.3305 20.4209ZM49.9424 21.8009C49.8917 22.1207 49.8242 22.3395 49.723 22.6087C49.5204 23.0295 49.1323 23.2483 48.6597 23.2483C48.1871 23.2483 47.8665 22.979 47.6471 22.5583C47.5289 22.2385 47.4783 21.9187 47.4783 21.599C47.4783 21.2287 47.4783 20.9089 47.6977 20.5723C47.9171 20.2021 48.1871 19.9328 48.6597 19.9328C49.1323 19.9328 49.5036 20.1516 49.723 20.5723C49.9424 20.9426 49.993 21.3802 49.9424 21.8009Z" fill="#828FA4"/>
<path d="M52.9296 23.635H51.0562V23.1469H51.6469V19.9998H51.0562V19.5117H52.2882V20.37C52.5076 19.9998 52.7777 19.6295 53.1996 19.4612C53.419 19.4107 53.7903 19.4107 54.0097 19.4612V20.0502C53.9084 20.0502 53.7903 20.0502 53.689 19.9998C52.9464 19.9493 52.3051 20.4878 52.3051 21.2283V23.0964H52.9971L52.9296 23.635Z" fill="#828FA4"/>
<path d="M46.1281 22.9453H45.4362V23.6353H46.1281V22.9453Z" fill="#828FA4"/>
<path d="M62.909 9.54516C62.909 10.2419 62.347 10.7939 61.6348 10.7939C60.9226 10.7939 60.3521 10.2419 60.3521 9.54516C60.3521 8.84841 60.9209 8.30481 61.6416 8.30481C62.3622 8.30481 62.909 8.85009 62.909 9.54516ZM60.6711 9.54516C60.6711 10.0972 61.088 10.5364 61.6416 10.5364C62.1799 10.5432 62.5901 10.0972 62.5901 9.55358C62.5901 9.00998 62.1799 8.55557 61.6264 8.55557C61.0728 8.55557 60.6694 9.00156 60.6694 9.54685L60.6711 9.54516ZM61.4373 10.1881H61.1487V8.94771C61.2618 8.93256 61.4222 8.91068 61.6264 8.91068C61.861 8.91068 61.9673 8.94771 62.0517 9.00829C62.1276 9.06047 62.1799 9.15135 62.1799 9.27252C62.1799 9.42399 62.0669 9.5216 61.9217 9.56704V9.58219C62.0432 9.61922 62.104 9.71851 62.1411 9.88513C62.1782 10.0736 62.2086 10.1426 62.2323 10.1881H61.9285C61.8913 10.1426 61.8677 10.0366 61.8306 9.88513C61.8086 9.75722 61.7327 9.69663 61.5724 9.69663H61.4357V10.1881H61.4373ZM61.4441 9.49131H61.5808C61.7394 9.49131 61.8694 9.43745 61.8694 9.30955C61.8694 9.19679 61.7867 9.12105 61.6044 9.12105C61.5285 9.12105 61.4762 9.12779 61.4458 9.1362V9.49131H61.4441Z" fill="#828FA4"/>
</svg>
