<svg width="72" height="32" viewBox="0 0 72 32" fill="none" xmlns="http://www.w3.org/2000/svg">
<path d="M34.4588 16.198V22.488H32.4285V6.93445H37.7034C38.9894 6.93445 40.2069 7.40775 41.1535 8.2858C42.1001 9.09857 42.5735 10.3161 42.5735 11.5989C42.5735 12.8817 42.1001 14.0339 41.1535 14.912C40.2069 15.79 39.058 16.2633 37.7034 16.2633L34.4556 16.1948L34.4588 16.198ZM34.4588 8.82438V14.2363H37.8405C38.5847 14.2363 39.3289 13.9654 39.8022 13.4235C40.8859 12.4084 40.8859 10.7176 39.8708 9.70243L39.8022 9.63388C39.2603 9.09204 38.5847 8.75583 37.8405 8.82111H34.4588V8.82438Z" fill="#828FA4"/>
<path d="M47.2409 11.5339C48.7294 11.5339 49.8784 11.9387 50.7564 12.7514C51.6345 13.5642 52.0425 14.6446 52.0425 15.9992V22.4916H50.1493V21.0031H50.0808C49.268 22.2207 48.119 22.8278 46.7677 22.8278C45.6187 22.8278 44.6035 22.4883 43.7908 21.8126C43.0465 21.137 42.5733 20.1904 42.5733 19.1752C42.5733 18.0915 42.978 17.2135 43.7908 16.5378C44.6035 15.8621 45.7525 15.5912 47.1039 15.5912C48.3214 15.5912 49.268 15.7936 50.0122 16.2669V15.7936C50.0122 15.1179 49.7413 14.4422 49.1994 14.0342C48.6576 13.5609 47.9819 13.29 47.2377 13.29C46.0887 13.29 45.2074 13.7633 44.6003 14.7099L42.8409 13.6262C43.9246 12.2063 45.3445 11.5306 47.2377 11.5306L47.2409 11.5339ZM44.6721 19.2438C44.6721 19.7856 44.943 20.2589 45.3478 20.5298C45.8211 20.8693 46.3629 21.0717 46.9047 21.0717C47.7175 21.0717 48.527 20.7322 49.1374 20.1251C49.8131 19.518 50.1526 18.7737 50.1526 17.961C49.5454 17.4877 48.6641 17.2168 47.5151 17.2168C46.7023 17.2168 46.0267 17.4191 45.4848 17.8239C44.943 18.1633 44.6721 18.6366 44.6721 19.2438Z" fill="#828FA4"/>
<path d="M63.0001 11.8712L56.3054 27.2257H54.2751L56.7787 21.8823L52.3819 11.9398H54.546L57.7253 19.5811H57.7939L60.9046 11.9398H63.0001V11.8712Z" fill="#828FA4"/>
<path d="M26.4093 14.847C26.4093 14.2399 26.3407 13.6295 26.2754 13.0223H17.8213V16.4725H22.6229C22.4205 17.5562 21.8101 18.5681 20.8635 19.1785V21.4112H23.7718C25.4626 19.8542 26.4093 17.5562 26.4093 14.8503V14.847Z" fill="#828FA4"/>
<path d="M17.8179 23.5725C20.253 23.5725 22.2833 22.7597 23.7684 21.4084L20.8601 19.1757C20.0474 19.7175 19.0355 20.0537 17.8179 20.0537C15.5167 20.0537 13.4897 18.4968 12.814 16.3326H9.83716V18.6339C11.3941 21.676 14.4363 23.5725 17.8179 23.5725Z" fill="#828FA4"/>
<path d="M12.814 16.3346C12.4092 15.251 12.4092 14.0334 12.814 12.8845V10.5833H9.83709C8.55103 13.0868 8.55103 16.0605 9.83709 18.6326L12.814 16.3314V16.3346Z" fill="#828FA4"/>
<path d="M17.8184 9.23331C19.1044 9.23331 20.322 9.70661 21.2686 10.5847L23.8374 8.01579C22.2152 6.52735 20.051 5.6493 17.8869 5.71458C14.5053 5.71458 11.3945 7.60778 9.90611 10.6532L12.883 12.9544C13.4901 10.7903 15.5204 9.23331 17.8216 9.23331H17.8184Z" fill="#828FA4"/>
</svg>
