<svg width="72" height="32" viewBox="0 0 72 32" fill="none" xmlns="http://www.w3.org/2000/svg">
<path d="M64.7972 12.3612C64.2717 10.8551 62.8363 9.77625 61.1519 9.77625H61.1181C60.0239 9.77625 59.0341 10.2311 58.3334 10.9627C57.6295 10.2311 56.6428 9.77625 55.5486 9.77625H55.5148C54.5527 9.77625 53.6706 10.1297 52.9944 10.7137V10.4156C52.9698 10.1205 52.727 9.8869 52.4289 9.8869H49.8439C49.5273 9.8869 49.2722 10.142 49.2722 10.4586V24.496C49.2722 24.8126 49.5273 25.0677 49.8439 25.0677H52.4289C52.7178 25.0677 52.9545 24.8525 52.9913 24.5728V14.4974C52.9913 14.4636 52.9913 14.4298 52.9944 14.396C53.0344 13.9472 53.3663 13.5753 53.8858 13.5292H54.3622C54.5804 13.5476 54.7648 13.6245 54.9093 13.7413C55.1337 13.9195 55.2597 14.1962 55.2597 14.4974L55.2689 24.5237C55.2689 24.8402 55.524 25.0984 55.8406 25.0984H58.4256C58.7299 25.0984 58.9788 24.8556 58.9942 24.5513V14.482C58.9942 14.1501 59.1448 13.8519 59.4122 13.6736C59.5444 13.5876 59.7042 13.5323 59.8886 13.5138H60.365C60.9244 13.563 61.2625 13.9872 61.2625 14.4789L61.2718 24.4929C61.2718 24.8095 61.5269 25.0646 61.8435 25.0646H64.4284C64.7419 25.0646 65.0001 24.8095 65.0001 24.4929V13.729C65.0001 12.9944 64.9171 12.6809 64.8034 12.3612" fill="#828FA4"/>
<path d="M47.2991 9.92305H45.8206V7.52867V7.52252C45.8206 7.2336 45.587 7 45.2981 7C45.2643 7 45.2305 7.00615 45.1997 7.01229C43.5615 7.46105 43.8904 9.73248 40.8966 9.92612H40.6046C40.5616 9.92612 40.5186 9.93227 40.4786 9.94149C40.2235 9.99989 40.0299 10.2273 40.0299 10.4978V13.0828C40.0299 13.3963 40.285 13.6545 40.6016 13.6545H42.1599V24.6151C42.1599 24.9286 42.4089 25.1807 42.7224 25.1807H45.2766C45.587 25.1807 45.8421 24.9286 45.8421 24.6151V13.6514H47.2898C47.6034 13.6514 47.8615 13.3963 47.8615 13.0797V10.4947C47.8615 10.1812 47.6064 9.92305 47.2898 9.92305" fill="#828FA4"/>
<path d="M38.0011 9.92395H35.4162C35.1027 9.92395 34.8445 10.1791 34.8445 10.4957V15.8407C34.8383 16.1727 34.5709 16.437 34.239 16.437H33.157C32.822 16.437 32.5515 16.1665 32.5515 15.8315L32.5423 10.4957C32.5423 10.1821 32.2872 9.92395 31.9706 9.92395H29.3857C29.0691 9.92395 28.814 10.1791 28.814 10.4957V16.354C28.814 18.5794 30.4 20.1654 32.6253 20.1654C32.6253 20.1654 34.2943 20.1654 34.3465 20.1746C34.6478 20.2084 34.8814 20.4605 34.8814 20.774C34.8814 21.0875 34.6508 21.3334 34.3527 21.3703C34.3373 21.3703 34.325 21.3764 34.3097 21.3795L30.5291 21.3918C30.2125 21.3918 29.9574 21.6469 29.9574 21.9635V24.5484C29.9574 24.865 30.2125 25.1201 30.5291 25.1201H34.7553C36.9837 25.1201 38.5667 23.5341 38.5667 21.3088V10.4957C38.5667 10.1821 38.3116 9.92395 37.995 9.92395" fill="#828FA4"/>
<path d="M12.9813 14.6605V16.2557C12.9813 16.5907 12.7108 16.8612 12.3758 16.8612H10.7345V13.6677H12.3758C12.7108 13.6677 12.9813 13.9382 12.9813 14.2732V14.6605ZM13.2088 9.92397H7.55939C7.24895 9.92397 6.99998 10.176 6.99998 10.4834V13.0161C6.99998 13.0161 6.99998 13.0253 6.99998 13.0314C6.99998 13.0437 6.99998 13.056 6.99998 13.0652V24.5269C6.99998 24.8374 7.23358 25.0925 7.5225 25.0986H10.1566C10.4701 25.0986 10.7283 24.8435 10.7283 24.5269L10.7375 20.5988H13.2118C15.2804 20.5988 16.722 19.1634 16.722 17.0856V13.4402C16.722 11.3624 15.2804 9.9209 13.2118 9.9209" fill="#828FA4"/>
<path d="M23.7056 20.7286V21.1313C23.7056 21.1651 23.6995 21.1958 23.6964 21.2265C23.6903 21.2542 23.681 21.2849 23.6718 21.3095C23.5919 21.537 23.3645 21.6999 23.0971 21.6999H22.0213C21.6862 21.6999 21.4127 21.4448 21.4127 21.1313V20.6425C21.4127 20.6425 21.4127 20.6302 21.4127 20.6241V19.327V18.9244C21.4127 18.6078 21.6862 18.3557 22.0213 18.3557H23.0971C23.4352 18.3557 23.7056 18.6109 23.7056 18.9244V20.7286ZM23.2938 9.94006H19.7068C19.3902 9.94006 19.132 10.1798 19.132 10.4749V11.48C19.132 11.48 19.132 11.4923 19.132 11.4984C19.132 11.5046 19.132 11.5138 19.132 11.5199V12.8969C19.132 13.2104 19.4056 13.4655 19.7406 13.4655H23.1555C23.4259 13.5086 23.638 13.7053 23.6687 14.0127V14.3446C23.638 14.6366 23.4259 14.8518 23.1677 14.8764H21.4772C19.2273 14.8764 17.6259 16.3702 17.6259 18.4695V21.4755C17.6259 23.5625 19.0029 25.0471 21.2375 25.0471H25.9248C26.767 25.0471 27.4493 24.4108 27.4493 23.6271V13.819C27.4493 11.44 26.223 9.94006 23.2938 9.94006Z" fill="#828FA4"/>
</svg>
