<svg width="72" height="32" viewBox="0 0 72 32" fill="none" xmlns="http://www.w3.org/2000/svg">
<path d="M49.2381 21.3237V18.014C49.2381 17.1994 48.9248 16.7921 48.1421 16.7921C47.8289 16.7921 47.4636 16.8431 47.2547 16.8938V21.731C47.2547 21.8837 47.0981 22.0365 46.9415 22.0365H45.7409C45.5843 22.0365 45.4277 21.8837 45.4277 21.731V16.0792C45.4277 15.8755 45.5843 15.723 45.7409 15.6719C46.524 15.4174 47.3067 15.2646 48.1418 15.2646C50.0208 15.2646 51.0648 16.232 51.0648 18.0143V21.782C51.0648 21.9347 50.9082 22.0875 50.7516 22.0875H50.0208C49.5513 22.0872 49.2381 21.731 49.2381 21.3237ZM53.9358 19.3379L53.8835 19.7962C53.8835 20.4073 54.301 20.7636 54.9794 20.7636C55.5013 20.7636 55.9711 20.6108 56.4932 20.3563C56.5455 20.3563 56.5975 20.3053 56.6498 20.3053C56.7542 20.3053 56.8064 20.3563 56.8587 20.407C56.911 20.4581 57.0154 20.6108 57.0154 20.6108C57.1197 20.7636 57.2243 20.9671 57.2243 21.1199C57.2243 21.3744 57.0676 21.6289 56.859 21.731C56.2849 22.0365 55.6064 22.1893 54.8757 22.1893C54.0406 22.1893 53.3619 21.9855 52.84 21.5782C52.3182 21.1199 52.005 20.5091 52.005 19.7452V17.7595C52.005 16.181 53.049 15.2136 54.8237 15.2136C56.5461 15.2136 57.5377 16.1303 57.5377 17.7595V18.9814C57.5377 19.1341 57.3811 19.2869 57.2245 19.2869H53.9363L53.9358 19.3379ZM53.8835 18.2178H55.8668V17.7087C55.8668 17.0976 55.5016 16.6903 54.8751 16.6903C54.2487 16.6903 53.8835 17.0466 53.8835 17.7087V18.2178ZM67.1935 19.3379L67.1412 19.7962C67.1412 20.4073 67.5588 20.7636 68.2372 20.7636C68.7591 20.7636 69.2289 20.6108 69.751 20.3563C69.8033 20.3563 69.8553 20.3053 69.9076 20.3053C70.0119 20.3053 70.0642 20.3563 70.1165 20.407C70.1688 20.4581 70.2731 20.6108 70.2731 20.6108C70.3774 20.7636 70.482 20.9671 70.482 21.1199C70.482 21.3744 70.3254 21.6289 70.1168 21.731C69.5427 22.0365 68.8642 22.1893 68.1334 22.1893C67.2984 22.1893 66.6197 21.9855 66.0978 21.5782C65.576 21.1199 65.2628 20.5091 65.2628 19.7452V17.7595C65.2628 16.181 66.3067 15.2136 68.0814 15.2136C69.8038 15.2136 70.7955 16.1303 70.7955 17.7595V18.9814C70.7955 19.1341 70.6389 19.2869 70.4823 19.2869H67.1941V19.3379H67.1935ZM67.1412 18.2178H69.1246V17.7087C69.1246 17.0976 68.7593 16.6903 68.1329 16.6903C67.5065 16.6903 67.1412 17.0466 67.1412 17.7087V18.2178ZM36.4501 22.0872H37.1809C37.3375 22.0872 37.4941 21.9345 37.4941 21.7817V18.014C37.4941 16.2828 36.5544 15.2644 34.9886 15.2644C34.5188 15.2644 33.997 15.3661 33.6837 15.4682V13.5842C33.6837 13.1769 33.3185 12.8203 32.9007 12.8203H32.1699C32.0133 12.8203 31.8567 12.9731 31.8567 13.1259V21.7817C31.8567 21.9345 32.0133 22.0872 32.1699 22.0872H33.3705C33.5271 22.0872 33.6837 21.9345 33.6837 21.7817V16.9956C33.9447 16.8938 34.3102 16.8428 34.5711 16.8428C35.3541 16.8428 35.6671 17.1991 35.6671 18.0647V21.3744C35.7194 21.731 36.0326 22.0872 36.4501 22.0872ZM44.3317 17.8102V19.6942C44.3317 21.2726 43.2357 22.24 41.4087 22.24C39.634 22.24 38.4858 21.2726 38.4858 19.6942V17.8102C38.4858 16.2317 39.5817 15.2644 41.4087 15.2644C43.2357 15.2644 44.3317 16.232 44.3317 17.8102ZM42.505 17.8102C42.505 17.1991 42.1398 16.7918 41.461 16.7918C40.7823 16.7918 40.4171 17.1481 40.4171 17.8102V19.6942C40.4171 20.3053 40.7823 20.6616 41.461 20.6616C42.1398 20.6616 42.505 20.3053 42.505 19.6942V17.8102ZM30.8653 16.9449C30.8653 18.5743 29.6127 19.6945 27.9423 19.6945C27.5248 19.6945 27.1593 19.6435 26.7941 19.4907V21.782C26.7941 21.9347 26.6375 22.0875 26.4809 22.0875H25.2803C25.1237 22.0875 24.9671 21.9347 24.9671 21.782V13.6862C24.9671 13.4824 25.1237 13.3299 25.2803 13.2789C26.0633 13.0244 26.8461 12.8716 27.6811 12.8716C29.5602 12.8716 30.8651 13.9917 30.8651 15.723C30.8653 15.7227 30.8653 16.9449 30.8653 16.9449ZM28.9863 15.6209C28.9863 14.8063 28.4122 14.399 27.6291 14.399C27.1593 14.399 26.8461 14.5518 26.8461 14.5518V17.9122C27.1593 18.065 27.3159 18.116 27.6811 18.116C28.4642 18.116 29.0383 17.6577 29.0383 16.8941V15.6212H28.9863V15.6209ZM64.5838 16.9449C64.5838 18.5743 63.3312 19.6945 61.6608 19.6945C61.2432 19.6945 60.8777 19.6435 60.5125 19.4907V21.782C60.5125 21.9347 60.3559 22.0875 60.1993 22.0875H58.9987C58.8421 22.0875 58.6855 21.9347 58.6855 21.782V13.6862C58.6855 13.4824 58.8421 13.3299 58.9987 13.2789C59.7817 13.0244 60.5645 12.8716 61.3996 12.8716C63.2786 12.8716 64.5835 13.9917 64.5835 15.723C64.5838 15.7227 64.5838 16.9449 64.5838 16.9449ZM62.7047 15.6209C62.7047 14.8063 62.1306 14.399 61.3475 14.399C60.8777 14.399 60.5645 14.5518 60.5645 14.5518V17.9122C60.8777 18.065 61.0343 18.116 61.3996 18.116C62.1826 18.116 62.7567 17.6577 62.7567 16.8941V15.6212H62.7047V15.6209Z" fill="#828FA4"/>
<path fill-rule="evenodd" clip-rule="evenodd" d="M20.6277 16.1022C20.6277 21.1292 16.4578 25.2044 11.3139 25.2044C6.16996 25.2044 2 21.1292 2 16.1022C2 11.0752 6.16996 7 11.3139 7C16.4578 7 20.6277 11.0752 20.6277 16.1022ZM14.8675 13.0707C15.2334 13.0707 15.5473 13.3744 15.5473 13.7286V14.2349C15.5473 14.3867 15.4427 14.4879 15.2858 14.4879H14.0829V21.7258C14.0829 21.8776 13.926 22.0295 13.7691 22.0295H13.0369C12.5662 22.0295 12.2003 21.6753 12.2003 21.2197V19.6C11.6774 19.8023 11.2588 19.853 10.7359 19.853C9.06229 19.853 8.06869 18.7899 8.06869 16.9679V14.5383H7.33653C6.97058 14.5383 6.65676 14.2346 6.65676 13.8804V13.3744C6.65676 13.2225 6.76127 13.1214 6.91818 13.1214H11.6777L8.53998 10.2363C8.43519 10.1351 8.48758 9.93282 8.6445 9.88211L9.63809 9.57838C10.0564 9.47723 10.4748 9.57838 10.7362 9.88211L13.6125 13.0707H14.8675ZM11.1543 18.2839C11.4681 18.2839 11.8864 18.2332 12.2003 18.0813V14.5383H9.89924V16.9679C9.89924 17.879 10.3176 18.2839 11.1543 18.2839Z" fill="#828FA4"/>
</svg>
