<svg width="72" height="32" viewBox="0 0 72 32" fill="none" xmlns="http://www.w3.org/2000/svg">
<path d="M6.4851 23.1473H6.93104L6.51341 24.8851C6.45324 25.1435 6.46386 25.3381 6.54881 25.4655C6.63375 25.5965 6.79301 25.6602 7.02306 25.6602C7.25311 25.6602 7.44069 25.5965 7.58934 25.4655C7.73799 25.3346 7.84062 25.1435 7.90433 24.8851L8.31842 23.1473H8.77144L8.34673 24.9276C8.25471 25.3133 8.08837 25.6036 7.85124 25.7947C7.61411 25.9858 7.3062 26.0814 6.92043 26.0814C6.53465 26.0814 6.27274 25.9858 6.13117 25.7947C5.98607 25.6036 5.96129 25.3133 6.05685 24.924L6.48156 23.1438L6.4851 23.1473Z" fill="#828FA4"/>
<path d="M8.71472 26.0098L9.42611 23.0369L10.7781 24.7852C10.8135 24.8348 10.8524 24.8879 10.8878 24.9445C10.9232 25.0011 10.9621 25.0648 10.9975 25.1356L11.4718 23.1537H11.8894L11.178 26.1266L9.79772 24.3464C9.76233 24.2968 9.72694 24.2473 9.69509 24.1942C9.66323 24.1411 9.63492 24.0845 9.6066 24.0278L9.12881 26.0169H8.71118L8.71472 26.0098Z" fill="#828FA4"/>
<path d="M11.8544 26.0083L12.541 23.1486H12.994L12.3109 26.0083H11.8579H11.8544Z" fill="#828FA4"/>
<path d="M12.9583 26.0083L13.645 23.1486H15.2022L15.1066 23.545H14.0024L13.8325 24.2599H14.9368L14.8377 24.6669H13.7334L13.4114 26.0118H12.9583V26.0083Z" fill="#828FA4"/>
<path d="M15.0144 26.0083L15.701 23.1486H16.154L15.4709 26.0083H15.0179H15.0144Z" fill="#828FA4"/>
<path d="M16.1189 26.0083L16.8055 23.1486H18.3627L18.2672 23.545H17.1629L16.9895 24.2634H18.0938L17.9947 24.6704H16.8904L16.6674 25.5942H17.7717L17.6726 26.0118H16.1153L16.1189 26.0083Z" fill="#828FA4"/>
<path d="M18.7485 25.5871H19.1308C19.3396 25.5871 19.5024 25.5729 19.6121 25.5446C19.7254 25.5163 19.828 25.4668 19.92 25.3995C20.0474 25.3075 20.1536 25.1907 20.2386 25.0562C20.3235 24.9182 20.3872 24.7589 20.4332 24.5749C20.4757 24.3908 20.4898 24.2316 20.4686 24.0971C20.4474 23.959 20.3978 23.8458 20.3129 23.7502C20.2492 23.683 20.1678 23.6334 20.0651 23.6051C19.9625 23.5768 19.7926 23.5627 19.559 23.5627H19.2299L18.745 25.5871H18.7485ZM18.1964 26.0083L18.883 23.1486H19.4953C19.8917 23.1486 20.1678 23.1698 20.32 23.2087C20.4721 23.2512 20.596 23.3184 20.6951 23.414C20.8261 23.5414 20.911 23.7042 20.9464 23.8989C20.9818 24.0971 20.9712 24.3236 20.9075 24.5784C20.8473 24.8332 20.7517 25.0562 20.6208 25.2544C20.4898 25.4491 20.3306 25.6119 20.1395 25.7393C19.9943 25.8348 19.8386 25.9056 19.6723 25.9445C19.5059 25.987 19.2582 26.0047 18.929 26.0047H18.1964V26.0083Z" fill="#828FA4"/>
<path d="M23.1124 24.3437H23.2292C23.4804 24.3437 23.6539 24.3154 23.753 24.2588C23.8521 24.2022 23.9158 24.1031 23.9512 23.9615C23.9866 23.8093 23.9689 23.7031 23.8945 23.6394C23.8202 23.5757 23.6645 23.5439 23.4238 23.5439H23.307L23.1159 24.3402L23.1124 24.3437ZM22.992 24.726L22.6841 26.0107H22.2594L22.946 23.151H23.6326C23.8344 23.151 23.983 23.1616 24.0715 23.1864C24.16 23.2076 24.2378 23.2466 24.2945 23.2996C24.3653 23.3669 24.4148 23.4554 24.436 23.5686C24.4573 23.6819 24.4537 23.8058 24.4219 23.9402C24.39 24.0747 24.3334 24.2022 24.2591 24.3154C24.1812 24.4287 24.0927 24.5207 23.9901 24.5844C23.9051 24.6375 23.8131 24.6729 23.714 24.6941C23.6114 24.7153 23.4592 24.726 23.2575 24.726H22.9956H22.992Z" fill="#828FA4"/>
<path d="M24.9812 24.8879H25.7599L25.6289 24.2367C25.6218 24.1942 25.6183 24.1482 25.6112 24.0916C25.6077 24.0385 25.6042 23.9783 25.6006 23.9111C25.5723 23.9748 25.5404 24.0314 25.5086 24.0845C25.4803 24.1376 25.4484 24.1871 25.4201 24.2331L24.9777 24.8843L24.9812 24.8879ZM25.9652 26.0098L25.8236 25.2737H24.7193L24.2203 26.0098H23.7461L25.8094 23.0369L26.4465 26.0098H25.9687H25.9652Z" fill="#828FA4"/>
<path d="M27.094 26.0083L27.4055 24.6987L26.8392 23.1486H27.317L27.6709 24.1183C27.678 24.1431 27.6886 24.1749 27.6992 24.2174C27.7098 24.2563 27.7204 24.3023 27.7311 24.3484C27.7594 24.3023 27.7877 24.2599 27.8195 24.2209C27.8478 24.182 27.8797 24.1431 27.908 24.1112L28.7362 23.1521H29.1892L27.8585 24.7023L27.5435 26.0118H27.094V26.0083Z" fill="#828FA4"/>
<path d="M31.419 24.5962C31.419 24.575 31.4261 24.5113 31.4367 24.4122C31.4473 24.3272 31.4544 24.26 31.4579 24.2033C31.4296 24.267 31.3978 24.3343 31.3624 24.398C31.327 24.4617 31.2845 24.5289 31.2349 24.5962L30.1413 26.1216L29.7839 24.5643C29.7697 24.5006 29.7556 24.4369 29.7485 24.3803C29.7414 24.3201 29.7343 24.26 29.7343 24.2033C29.7202 24.2635 29.6989 24.3272 29.6742 24.3909C29.6494 24.4582 29.6211 24.5254 29.5892 24.5962L28.9522 26.0048H28.5345L29.9077 23.0212L30.2971 24.8262C30.3041 24.8546 30.3112 24.9041 30.3218 24.9678C30.3325 25.0351 30.3431 25.1165 30.3572 25.2156C30.4032 25.1342 30.4705 25.028 30.559 24.9041C30.5837 24.8687 30.6014 24.8439 30.6121 24.8262L31.8472 23.0212L31.8083 26.0048H31.3871L31.4155 24.5927L31.419 24.5962Z" fill="#828FA4"/>
<path d="M32.173 26.0083L32.8596 23.1486H34.4169L34.3213 23.545H33.2171L33.0472 24.2634H34.1514L34.0523 24.6704H32.9481L32.7251 25.5942H33.8294L33.7303 26.0118H32.173V26.0083Z" fill="#828FA4"/>
<path d="M34.2502 26.0098L34.9616 23.0369L36.3136 24.7852C36.3489 24.8348 36.3879 24.8879 36.4233 24.9445C36.4587 25.0011 36.4976 25.0648 36.533 25.1356L37.0073 23.1537H37.4249L36.7135 26.1266L35.3332 24.3464C35.2978 24.2968 35.2624 24.2473 35.2306 24.1942C35.1987 24.1411 35.1704 24.0845 35.1421 24.0278L34.6643 26.0169H34.2467L34.2502 26.0098Z" fill="#828FA4"/>
<path d="M38.8761 23.5402L38.285 26.007H37.832L38.423 23.5402H37.6833L37.7789 23.1438H39.7113L39.6158 23.5402H38.8796H38.8761Z" fill="#828FA4"/>
<path d="M39.3433 25.4361L39.7468 25.2627C39.7504 25.3901 39.7893 25.4892 39.8671 25.5564C39.9415 25.6237 40.0512 25.6555 40.1928 25.6555C40.3273 25.6555 40.444 25.6166 40.5396 25.5387C40.6387 25.4609 40.7024 25.3582 40.7343 25.2308C40.7732 25.0609 40.6741 24.9123 40.4334 24.7813C40.4016 24.7601 40.3733 24.746 40.3556 24.7389C40.0866 24.5867 39.9132 24.4451 39.8424 24.3212C39.7716 24.1974 39.7539 24.0452 39.7999 23.8647C39.8565 23.6311 39.9769 23.4435 40.168 23.2984C40.3556 23.1533 40.575 23.0825 40.8263 23.0825C41.0316 23.0825 41.1944 23.125 41.3147 23.2064C41.435 23.2878 41.5023 23.4046 41.52 23.5568L41.12 23.7444C41.0846 23.6559 41.0386 23.5886 40.982 23.5462C40.9254 23.5037 40.8546 23.4825 40.7661 23.4825C40.6458 23.4825 40.5396 23.5143 40.4511 23.5815C40.3626 23.6453 40.306 23.7337 40.2812 23.8435C40.2388 24.0169 40.3591 24.1761 40.6387 24.3248C40.6599 24.3354 40.6776 24.346 40.6883 24.3531C40.9325 24.4841 41.0917 24.6115 41.166 24.7353C41.2404 24.8592 41.2545 25.0149 41.2085 25.2025C41.1448 25.475 41.0103 25.6874 40.805 25.8502C40.5998 26.0095 40.3556 26.0909 40.0724 26.0909C39.8353 26.0909 39.6548 26.0342 39.5274 25.9245C39.4035 25.8113 39.3398 25.652 39.3433 25.4432" fill="#828FA4"/>
<path d="M42.6948 26.0083L43.3814 23.1486H43.8344L43.1478 26.0083H42.6948Z" fill="#828FA4"/>
<path d="M43.7988 26.0098L44.5102 23.0369L45.8621 24.7852C45.8975 24.8348 45.9365 24.8879 45.9719 24.9445C46.0072 25.0011 46.0462 25.0648 46.0816 25.1356L46.5558 23.1537H46.9734L46.2621 26.1266L44.8818 24.3464C44.8464 24.2968 44.811 24.2473 44.7791 24.1942C44.7473 24.1411 44.719 24.0845 44.6907 24.0278L44.2129 26.0169H43.7952L43.7988 26.0098Z" fill="#828FA4"/>
<path d="M48.4246 23.5402L47.8336 26.007H47.3806L47.9716 23.5402H47.2319L47.3275 23.1438H49.2599L49.1643 23.5402H48.4282H48.4246Z" fill="#828FA4"/>
<path d="M48.917 26.0083L49.6036 23.1486H51.1609L51.0653 23.545H49.9611L49.7877 24.2634H50.8919L50.7928 24.6704H49.6886L49.4656 25.5942H50.5698L50.4707 26.0118H48.9135L48.917 26.0083Z" fill="#828FA4"/>
<path d="M51.8401 24.3661H51.9215C52.1622 24.3661 52.3285 24.3377 52.4206 24.2811C52.5126 24.2245 52.5763 24.1218 52.6117 23.9767C52.6506 23.8175 52.6329 23.7078 52.5657 23.6441C52.4984 23.5803 52.3498 23.5485 52.1197 23.5485H52.0383L51.8401 24.3696V24.3661ZM51.7233 24.7271L51.4154 26.0083H50.9907L51.6773 23.1486H52.3108C52.4949 23.1486 52.6365 23.1592 52.732 23.1875C52.8276 23.2123 52.9054 23.2547 52.9656 23.3114C53.0364 23.3786 53.0824 23.4706 53.1001 23.5803C53.1213 23.6901 53.1142 23.8104 53.0859 23.9413C53.0328 24.1714 52.9337 24.3519 52.7957 24.4793C52.6577 24.6103 52.4772 24.6881 52.2613 24.7129L52.909 26.0153H52.3958L51.7729 24.7341H51.7198L51.7233 24.7271Z" fill="#828FA4"/>
<path d="M53.178 26.0083L53.8646 23.1486H55.4219L55.3263 23.545H54.2221L54.0522 24.2599H55.1565L55.0574 24.6669H53.9531L53.631 26.0118H53.178V26.0083Z" fill="#828FA4"/>
<path d="M55.9456 24.8879H56.7242L56.5932 24.2367C56.5862 24.1942 56.5826 24.1482 56.5755 24.0916C56.572 24.0385 56.5685 23.9783 56.5649 23.9111C56.5331 23.9748 56.5048 24.0314 56.4729 24.0845C56.4446 24.1376 56.4127 24.1871 56.3844 24.2331L55.942 24.8843L55.9456 24.8879ZM56.9295 26.0098L56.7879 25.2737H55.6837L55.1846 26.0098H54.7068L56.7702 23.0369L57.4073 26.0098H56.9295Z" fill="#828FA4"/>
<path d="M60.359 23.8435C60.2564 23.7302 60.1432 23.6488 60.0122 23.5922C59.8813 23.5355 59.7397 23.5072 59.5804 23.5072C59.276 23.5072 59.0035 23.6063 58.7664 23.8081C58.5257 24.0098 58.37 24.2682 58.2921 24.5867C58.2178 24.8946 58.2497 25.1494 58.3877 25.3512C58.5257 25.5529 58.7381 25.652 59.0177 25.652C59.184 25.652 59.3468 25.6237 59.5096 25.5635C59.6724 25.5033 59.8388 25.4113 60.0051 25.291L59.8777 25.8183C59.7326 25.9068 59.584 25.9741 59.4318 26.0201C59.276 26.0661 59.1168 26.0873 58.9504 26.0873C58.7381 26.0873 58.547 26.0519 58.3842 25.9811C58.2214 25.9104 58.0869 25.8042 57.9842 25.6662C57.8816 25.5281 57.8143 25.3689 57.786 25.1813C57.7577 24.9972 57.7683 24.799 57.8179 24.5867C57.8674 24.3779 57.9524 24.1797 58.0692 23.9956C58.186 23.8116 58.3311 23.6488 58.5009 23.5108C58.6744 23.3692 58.8584 23.263 59.0531 23.1922C59.2477 23.1215 59.453 23.0825 59.6618 23.0825C59.8246 23.0825 59.9768 23.1073 60.1113 23.1568C60.2493 23.2064 60.3732 23.2807 60.49 23.3798L60.352 23.847L60.359 23.8435Z" fill="#828FA4"/>
<path d="M60.4016 26.0083L61.0882 23.1486H62.6454L62.5499 23.545H61.4456L61.2722 24.2634H62.3765L62.2774 24.6704H61.1731L60.9502 25.5942H62.0544L61.9553 26.0118H60.398L60.4016 26.0083Z" fill="#828FA4"/>
<path d="M52.134 20.654H49.0195L53.355 5H56.4731L52.1375 20.654H52.134Z" fill="#828FA4"/>
<path d="M50.5166 5.49807C50.3007 5.20077 49.968 5.04858 49.515 5.04858H32.3781L31.5287 8.11355H34.6467H47.1189L46.2129 11.3909H33.7407V11.3838H30.6262L28.039 20.7238H31.157L32.8913 14.4558H46.9101C47.349 14.4558 47.7595 14.3072 48.1489 14.0064C48.5346 13.7091 48.7895 13.3374 48.9133 12.8986L50.6475 6.63062C50.775 6.17406 50.7289 5.7989 50.5166 5.5016" fill="#828FA4"/>
<path d="M26.2233 19.6762C26.0499 20.2956 25.4871 20.7238 24.843 20.7238H8.76432C8.32546 20.7238 7.99985 20.5752 7.7875 20.2779C7.57515 19.9806 7.52914 19.6089 7.64947 19.1701L11.5709 5.04858H14.689L11.1851 17.6624H23.6609L27.1647 5.04858H30.2828L26.2198 19.6797L26.2233 19.6762Z" fill="#828FA4"/>
<path d="M61.8493 5.02942L65.7955 12.8759L57.5031 20.7188L61.8528 5.02942H61.8493Z" fill="#828FA4"/>
<path d="M59.0849 5.02942L63.0276 12.8759L54.7316 20.7188L59.0849 5.02942Z" fill="#828FA4"/>
</svg>
